<?xml version="1.0" encoding="UTF-8"?>
<svg version="1.1" xmlns="http://www.w3.org/2000/svg" width="2245" height="1587">
<path d="M0 0 C740.85 0 1481.7 0 2245 0 C2245 523.71 2245 1047.42 2245 1587 C1504.15 1587 763.3 1587 0 1587 C0 1063.29 0 539.58 0 0 Z " fill="#FEFEFE" transform="translate(0,0)"/>
<path d="M0 0 C4.09837976 2.1779961 7.9450397 4.68869038 11.8125 7.25 C12.92980406 7.9799368 14.04740176 8.70942432 15.1652832 9.43847656 C29.28648179 18.693082 42.86400227 28.39473763 55.47314453 39.640625 C56.91888809 40.92778524 58.37897664 42.19878024 59.83984375 43.46875 C80.12254694 61.28092844 95.64382266 84.97227912 98.21582031 112.29248047 C98.8841314 123.44942916 97.38044823 134.12555863 95 145 C94.7839209 145.9909668 94.7839209 145.9909668 94.56347656 147.00195312 C93.75194466 150.67868949 92.89672039 154.34316152 92 158 C92.66 158 93.32 158 94 158 C94.10957031 157.27296875 94.21914062 156.5459375 94.33203125 155.796875 C97.76131197 134.05021675 105.52814491 115.81247071 120 99 C120.51949219 98.39542969 121.03898437 97.79085937 121.57421875 97.16796875 C149.09708098 67.56529325 194.69176444 58.89417375 233 55 C233.90105469 54.90283691 234.80210937 54.80567383 235.73046875 54.70556641 C248.68180621 53.44365393 248.68180621 53.44365393 253.49609375 56.67578125 C255.69456843 59.30775798 257.30157317 62.02049482 259 65 C259.80408045 66.1722258 260.62268641 67.33457832 261.453125 68.48828125 C279.39163046 93.44974254 295.01093797 120.131346 303 150 C303.22558594 150.8146875 303.45117188 151.629375 303.68359375 152.46875 C307.1597942 167.62018919 306.08341713 184.38836886 301 199 C300.76394043 199.68900391 300.52788086 200.37800781 300.28466797 201.08789062 C295.66756576 214.17414549 288.77358544 225.27000586 280 236 C280.33 236.66 280.66 237.32 281 238 C281.56654297 237.03513672 281.56654297 237.03513672 282.14453125 236.05078125 C288.78890904 225.14279804 296.81995131 214.82927423 307 207 C307.71027344 206.44183594 308.42054688 205.88367188 309.15234375 205.30859375 C335.91475523 185.4037719 369.03034951 181.76931531 401.34375 186.2421875 C416.862534 188.65425769 432.03487778 192.27417193 447 197 C449.41663669 197.72926601 451.83330115 198.45844001 454.25 199.1875 C456.17253411 199.77272735 458.08997638 200.37514942 460 201 C461.33804687 201.30550781 461.33804687 201.30550781 462.703125 201.6171875 C465.67165149 203.40436161 466.11818943 205.28784474 466.96337891 208.55786133 C467.22900635 209.73578247 467.22900635 209.73578247 467.5 210.9375 C467.80236572 212.18213013 467.80236572 212.18213013 468.11083984 213.4519043 C470.87873189 225.20527729 472.98555328 237.09855616 475 249 C475.25209229 250.43714355 475.25209229 250.43714355 475.50927734 251.90332031 C477.44898478 263.13955304 478.26652726 274.15598525 478.3125 285.5625 C478.31805908 286.70388428 478.32361816 287.84526855 478.3293457 289.02124023 C478.08565258 317.66663785 468.96516413 343.74537512 448.44873047 364.03100586 C441.39954403 370.7494359 433.52525785 375.8427683 425.25 380.9375 C421.97224007 382.62588385 421.97224007 382.62588385 421 385 C421.69222656 384.55515259 421.69222656 384.55515259 422.3984375 384.10131836 C449.45410384 366.83394831 476.79976703 358.31345316 509.0390625 364.953125 C519.27887469 367.54593787 528.8268965 370.97840948 538.3125 375.625 C539.39700439 376.15206543 540.48150879 376.67913086 541.59887695 377.22216797 C550.46133943 381.59838355 558.84729941 386.42088423 567 392 C567.58217285 392.39364746 568.1643457 392.78729492 568.76416016 393.19287109 C577.3356714 399.02245245 585.44980902 405.39232133 593.39453125 412.046875 C595.49799843 413.80404966 597.53923226 415.36097983 599.82421875 416.890625 C602.10451516 418.46653665 603.55953379 419.63283387 605 422 C605.78010329 426.77452104 604.84646645 431.29439478 604 436 C603.83741699 436.98210449 603.67483398 437.96420898 603.50732422 438.97607422 C601.2069212 452.84267999 598.45292108 466.54037893 594.56005859 480.05126953 C594.06078595 481.78849458 593.58535783 483.53253208 593.11328125 485.27734375 C584.37463127 516.0010136 568.98823623 544.02660134 540.52807617 560.20166016 C533.96813014 563.7399857 527.15688896 565.9562847 520 568 C518.42025391 568.46212891 518.42025391 568.46212891 516.80859375 568.93359375 C509.90333016 570.81521056 503.1399931 571.6328727 496 572 C496 572.66 496 573.32 496 574 C497.51400391 573.67515625 497.51400391 573.67515625 499.05859375 573.34375 C527.80850892 567.62969165 556.48399026 570.50479108 581.41015625 586.52734375 C596.84798297 596.91188562 610.3178581 610.84569857 621 626 C621.46229004 626.65564941 621.92458008 627.31129883 622.40087891 627.98681641 C630.18791058 639.14346179 637.0820359 650.74067732 643.67529297 662.63525391 C644.8818936 664.78916723 646.12109298 666.91869769 647.37890625 669.04296875 C648.03761719 670.18378906 648.69632813 671.32460938 649.375 672.5 C649.93960937 673.4590625 650.50421875 674.418125 651.0859375 675.40625 C652 678 652 678 651.4609375 680.33984375 C649.46891759 683.96702438 647.41553771 687.53581111 645.25 691.0625 C644.53070312 692.23474121 644.53070312 692.23474121 643.796875 693.43066406 C631.99269491 712.42425231 618.78536672 730.44544789 603.32226562 746.61474609 C602.17857825 747.81291489 601.04888643 749.02441367 599.921875 750.23828125 C582.34323281 768.66631162 558.71815498 780.49471115 533.1472168 781.39257812 C519.21990856 781.64063008 506.39462422 778.59270862 493 775 C493 775.66 493 776.32 493 777 C494.16273437 777.20753906 495.32546875 777.41507813 496.5234375 777.62890625 C524.61408643 782.92104725 548.54193008 795.55927998 565.28466797 819.39111328 C583.54207133 846.17004208 590.59725559 878.21075502 594 910 C594.20639886 911.82819651 594.4134202 913.65632285 594.62109375 915.484375 C595.12112657 919.98717892 595.60929473 924.48620495 596 929 C596.08459473 929.84119385 596.16918945 930.6823877 596.25634766 931.54907227 C596 934 596 934 594.43041992 935.6340332 C593.70443604 936.10156006 592.97845215 936.56908691 592.23046875 937.05078125 C591.42287109 937.58509766 590.61527344 938.11941406 589.78320312 938.66992188 C588.92662109 939.21197266 588.07003906 939.75402344 587.1875 940.3125 C585.53391023 941.39001732 583.88157789 942.46946664 582.23046875 943.55078125 C581.37710937 944.10443359 580.52375 944.65808594 579.64453125 945.22851562 C576.89184967 947.07244635 574.2346218 949.01388213 571.57421875 950.98828125 C542.779779 972.10757891 503.465246 992.65919066 466.62695312 987.67919922 C446.20221018 984.20327626 429.07161287 974.71600139 413 962 C412.34 962.66 411.68 963.32 411 964 C411.71027344 964.24878906 412.42054687 964.49757813 413.15234375 964.75390625 C434.04290011 973.89531569 449.44415632 995.73288388 458.24609375 1015.84765625 C467.34045636 1040.44136058 466.37613733 1066.59671142 462 1092 C461.79117187 1093.24595947 461.79117187 1093.24595947 461.578125 1094.51708984 C459.32221188 1107.68963807 455.79752616 1120.4292583 451.80810547 1133.17626953 C450.95178361 1136.0184724 450.95178361 1136.0184724 450.39892578 1139.05419922 C449.81493865 1141.88307562 449.20548568 1144.37449061 448 1147 C444.92777039 1148.83689253 443.3883526 1149.37137664 440 1150 C439.02708008 1150.23187012 438.05416016 1150.46374023 437.05175781 1150.70263672 C433.58711173 1151.51202201 430.1125139 1152.23333274 426.625 1152.9375 C424.7234314 1153.3255481 424.7234314 1153.3255481 422.78344727 1153.72143555 C414.20042215 1155.45097244 405.59026648 1156.97236867 396.9375 1158.3125 C395.91156738 1158.47161865 394.88563477 1158.6307373 393.82861328 1158.79467773 C361.2911705 1163.62399758 326.58687513 1162.74990289 298.9375 1142.8125 C285.37306878 1132.20147166 274.74322942 1119.40495117 267 1104 C267 1107.92903537 268.41425489 1109.47260139 270.5625 1112.75 C285.61090121 1136.44551647 291.0535662 1163.03434664 285.61230469 1190.85742188 C278.09306501 1223.73598165 257.48063062 1253.33768323 235.92578125 1278.64453125 C233.9858325 1280.91121346 233.9858325 1280.91121346 232.60546875 1283.26171875 C231.18362454 1285.44818009 230.2066519 1286.6011894 228 1288 C217.76059792 1288.58541559 207.11161574 1285.92955022 197.125 1283.875 C196.36298279 1283.72005066 195.60096558 1283.56510132 194.81585693 1283.40545654 C158.50366885 1275.98388373 117.16469298 1264.16216125 95.21606445 1231.72583008 C91.16407207 1225.44416993 87.79951558 1218.93213382 85 1212 C84.71640625 1211.34 84.4328125 1210.68 84.140625 1210 C80.03833468 1199.95357473 78.47439417 1189.80411991 79 1179 C78.01 1179 77.02 1179 76 1179 C76.31940552 1180.12704346 76.31940552 1180.12704346 76.64526367 1181.27685547 C78.8045509 1189.5895748 79.44015857 1197.4980041 79.33618164 1206.04833984 C79.31243985 1208.13027454 79.31566917 1210.21093118 79.32226562 1212.29296875 C79.30082325 1223.90793322 77.83992502 1234.05400001 73.4375 1244.8125 C72.91023315 1246.10716187 72.91023315 1246.10716187 72.37231445 1247.42797852 C56.14035825 1285.9542562 17.91159262 1310.26141176 -17.4375 1329.375 C-18.30705322 1329.85767334 -19.17660645 1330.34034668 -20.07250977 1330.83764648 C-23.53586445 1332.66370475 -26.11507993 1333.96722518 -30.05859375 1334.11328125 C-34.27178087 1332.51864867 -37.86546074 1330.27512281 -41.625 1327.8125 C-42.44677734 1327.28293701 -43.26855469 1326.75337402 -44.11523438 1326.20776367 C-57.56025494 1317.47129923 -70.82607391 1308.45546698 -83 1298 C-84.11467157 1297.07925768 -85.23064045 1296.16008446 -86.34765625 1295.2421875 C-97.71165766 1285.8233194 -108.14928666 1275.59462781 -116 1263 C-117.00160156 1261.39705078 -117.00160156 1261.39705078 -118.0234375 1259.76171875 C-126.73824152 1245.39018523 -131.39986344 1230.46307266 -131.375 1213.625 C-131.37483887 1212.59004395 -131.37467773 1211.55508789 -131.37451172 1210.48876953 C-131.1979992 1198.34285013 -129.06249298 1186.45549823 -125 1175 C-125.99 1175 -126.98 1175 -128 1175 C-127.95617187 1175.97839844 -127.91234375 1176.95679688 -127.8671875 1177.96484375 C-127.87385 1182.38763262 -128.90272426 1186.3348155 -130.125 1190.5625 C-130.34945801 1191.34826416 -130.57391602 1192.13402832 -130.80517578 1192.94360352 C-138.72984151 1219.80304616 -155.20584624 1240.57246001 -179.57128906 1254.16894531 C-192.15946877 1260.94189586 -205.10145519 1265.54904969 -218.84863281 1269.39501953 C-220.60985869 1269.89028936 -222.36456644 1270.40868594 -224.1171875 1270.93359375 C-242.56501831 1276.34458364 -264.86192773 1280.15668733 -284 1279 C-286.28125 1276.89453125 -286.28125 1276.89453125 -288.5 1273.8125 C-289.12068359 1272.95930176 -289.12068359 1272.95930176 -289.75390625 1272.08886719 C-291.19772765 1270.07783024 -292.60107887 1268.04251568 -294 1266 C-294.54785156 1265.20706543 -295.09570312 1264.41413086 -295.66015625 1263.59716797 C-320.02612459 1228.17248413 -345.27954241 1187.12420915 -337.01904297 1142.23803711 C-333.7081001 1127.36712314 -326.26372088 1113.78997439 -317.06640625 1101.78515625 C-315.40577694 1099.54691675 -314.1180049 1097.5353663 -313 1095 C-315.88328945 1098.5617105 -318.64867283 1102.19206681 -321.375 1105.875 C-336.52054014 1126.06081777 -355.5984011 1138.63202577 -380 1145 C-381.21816406 1145.32097656 -382.43632813 1145.64195313 -383.69140625 1145.97265625 C-411.10065109 1152.11758601 -441.47664784 1147.10525452 -468.19238281 1139.76123047 C-470.24094565 1139.20580273 -472.2960126 1138.67420469 -474.35449219 1138.15673828 C-477.93684572 1137.25209861 -481.49914015 1136.28903186 -485.0625 1135.3125 C-486.75088989 1134.89532715 -486.75088989 1134.89532715 -488.47338867 1134.46972656 C-495.95856487 1132.31127998 -495.95856487 1132.31127998 -498.50097656 1129.11010742 C-499.69176593 1126.42398116 -500.36435644 1123.87161588 -501 1121 C-501.29946533 1119.71955811 -501.59893066 1118.43911621 -501.9074707 1117.11987305 C-502.90817035 1112.66002213 -503.7684494 1108.1768273 -504.625 1103.6875 C-504.92625079 1102.15673696 -505.2283296 1100.62613664 -505.53125 1099.09570312 C-512.8589386 1061.78285604 -517.61831315 1019.61645103 -496.3125 985.875 C-485.9022646 971.0483011 -473.00900158 960.65597222 -457.484375 951.59375 C-454.90632113 950.23877476 -454.90632113 950.23877476 -454 948 C-454.73150269 948.46055786 -454.73150269 948.46055786 -455.4777832 948.93041992 C-473.68727647 960.35022344 -473.68727647 960.35022344 -483 964 C-483.92167969 964.36609375 -484.84335937 964.7321875 -485.79296875 965.109375 C-496.6660929 969.24866088 -506.53877302 970.47532626 -518.1875 970.5 C-519.24505493 970.50351974 -519.24505493 970.50351974 -520.32397461 970.5071106 C-533.25904858 970.48937077 -544.87096959 968.59197709 -557 964 C-557.72525879 963.72736328 -558.45051758 963.45472656 -559.19775391 963.17382812 C-563.91779222 961.34586808 -568.4659509 959.24531414 -573 957 C-573.66773438 956.67692871 -574.33546875 956.35385742 -575.0234375 956.02099609 C-596.00123129 945.79432162 -614.58734881 931.50133176 -632.22265625 916.34765625 C-634.82607034 914.00399704 -634.82607034 914.00399704 -637.3984375 912.625 C-639 911 -639 911 -639.12890625 907.90234375 C-638.96515208 906.57739247 -638.77386328 905.25569456 -638.5625 903.9375 C-638.45832764 903.20072021 -638.35415527 902.46394043 -638.24682617 901.70483398 C-637.86471352 899.13009139 -637.43756562 896.56589214 -637 894 C-636.83822266 893.03481445 -636.67644531 892.06962891 -636.50976562 891.07519531 C-629.66879189 851.13560702 -618.77869153 806.02620495 -585 780 C-572.73871006 771.32988285 -559.04261888 765.48786435 -544.3125 762.8125 C-543.38888672 762.63525391 -542.46527344 762.45800781 -541.51367188 762.27539062 C-537.2655862 761.48327098 -533.3343958 760.90524071 -529 761 C-529 760.34 -529 759.68 -529 759 C-530.01320313 759.20496094 -531.02640625 759.40992188 -532.0703125 759.62109375 C-533.4218645 759.89328131 -534.77342759 760.16541379 -536.125 760.4375 C-536.79015625 760.57220703 -537.4553125 760.70691406 -538.140625 760.84570312 C-540.0922625 761.237944 -542.04611903 761.61909189 -544 762 C-544.96292969 762.19078125 -545.92585937 762.3815625 -546.91796875 762.578125 C-573.02409457 766.15158709 -598.96148433 758.52686287 -620 743 C-625.18303619 738.81000185 -629.87621412 734.1302216 -634.578125 729.4140625 C-636.04163054 727.95527794 -637.52268984 726.51342692 -639.03515625 725.10546875 C-655.1868855 709.82512373 -666.58290791 689.52712993 -677.125 670.1875 C-677.96019165 668.65706055 -677.96019165 668.65706055 -678.81225586 667.09570312 C-680.24974601 664.41602306 -681.63584805 661.71755385 -683 659 C-683.54527344 657.948125 -684.09054687 656.89625 -684.65234375 655.8125 C-685.21345188 651.27319828 -682.90140803 648.49724515 -680.4375 644.8125 C-679.93806885 644.03366455 -679.4386377 643.2548291 -678.92407227 642.45239258 C-677.30716765 639.95122373 -675.65781051 637.47421487 -674 635 C-673.45730469 634.18112305 -672.91460938 633.36224609 -672.35546875 632.51855469 C-650.00027327 598.86571567 -623.98749821 564.44614847 -583 554 C-581.95199219 553.72506714 -581.95199219 553.72506714 -580.8828125 553.44458008 C-575.18925751 552.04558156 -569.73042422 551.57905432 -563.875 551.5625 C-562.93938232 551.55935791 -562.00376465 551.55621582 -561.03979492 551.55297852 C-549.18810584 551.74868726 -537.23963502 554.25345499 -526 558 C-526 557.34 -526 556.68 -526 556 C-527.83111328 555.65388672 -527.83111328 555.65388672 -529.69921875 555.30078125 C-549.3880916 551.45611346 -567.94699253 544.67560809 -583 531 C-584.33804688 529.80117187 -584.33804688 529.80117187 -585.703125 528.578125 C-593.17272207 521.52582385 -598.78898366 513.8133372 -604 505 C-604.3515918 504.40687012 -604.70318359 503.81374023 -605.06542969 503.20263672 C-620.35686162 476.69504922 -627.01320857 443.30185832 -628.85205078 412.9921875 C-628.99009756 411.13333982 -629.23900892 409.28365249 -629.49609375 407.4375 C-629.81677105 404.27031682 -629.90735398 402.05115407 -629 399 C-625.84172317 395.21128019 -622.11175908 392.67871989 -618 390 C-617.09765625 389.36964844 -616.1953125 388.73929687 -615.265625 388.08984375 C-612.81159747 386.40183329 -610.33076594 384.76869131 -607.82128906 383.16455078 C-606.51343823 382.32829764 -605.208426 381.48759884 -603.90527344 380.64404297 C-570.4651917 359.00421509 -535.63632589 339.94142825 -494.4375 345.5 C-476.11504725 349.6879892 -459.59454624 359.44598423 -445 371 C-448.07237083 367.6097977 -451.3154274 365.00661457 -455.0625 362.375 C-473.00889617 349.50777256 -485.79094732 333.3613891 -492.875 312.375 C-493.16125244 311.52897217 -493.44750488 310.68294434 -493.74243164 309.8112793 C-497.51070255 298.03755639 -498.34936547 286.62713426 -498.25 274.3125 C-498.24623352 273.60324371 -498.24246704 272.89398743 -498.23858643 272.16323853 C-498.17329659 261.67003923 -497.98721748 251.34137515 -496 241 C-495.81695313 240.04448242 -495.63390625 239.08896484 -495.4453125 238.10449219 C-491.87531834 220.01762363 -486.82635909 202.47907728 -481 185 C-476.2302019 183.0652309 -471.0154769 182.1345603 -466 181 C-464.96069336 180.76345703 -463.92138672 180.52691406 -462.85058594 180.28320312 C-422.63572566 171.25982882 -374.71124763 162.92485408 -337.6875 186.3125 C-324.02758399 195.32436857 -313.5502067 206.95155936 -305.04296875 220.80078125 C-303.18583382 223.70899063 -301.20925411 226.35385969 -299 229 C-300.9468358 225.57356899 -302.90324772 222.16138437 -304.9296875 218.78125 C-318.31627099 196.20147062 -325.22286655 170.03590143 -319 144 C-318.75507812 142.8140625 -318.51015625 141.628125 -318.2578125 140.40625 C-315.92139846 129.60033509 -311.83678193 119.91017032 -307 110 C-306.69610352 109.36771484 -306.39220703 108.73542969 -306.07910156 108.08398438 C-297.29584235 90.0127925 -285.23946034 73.47920747 -272.58251953 57.94921875 C-271.56444592 56.69523854 -270.55667531 55.43278525 -269.56201172 54.16015625 C-268.29770732 52.54345965 -266.99382593 50.9579359 -265.6875 49.375 C-264.99011719 48.51648438 -264.29273438 47.65796875 -263.57421875 46.7734375 C-258.62600271 43.36449959 -252.89202917 44.77435875 -247.23046875 45.734375 C-245.54768502 46.06388274 -243.86672371 46.40280527 -242.1875 46.75 C-241.2795166 46.93191895 -240.3715332 47.11383789 -239.43603516 47.30126953 C-237.5500331 47.67938342 -235.66461456 48.06041928 -233.77978516 48.44433594 C-231.14252149 48.97151072 -228.50157441 49.4647589 -225.85546875 49.9453125 C-214.24000326 52.08649575 -203.14230218 55.08555359 -192 59 C-191.13165527 59.30454102 -190.26331055 59.60908203 -189.36865234 59.92285156 C-160.16485503 70.30337326 -136.21486799 85.10547648 -121.28515625 113.23046875 C-115.48732882 125.57851343 -111.45485646 140.30727687 -112 154 C-111.01 154 -110.02 154 -109 154 C-109.20496094 153.26136719 -109.40992188 152.52273438 -109.62109375 151.76171875 C-114.37731201 133.85193993 -114.208092 115.95321495 -110 98 C-109.70996094 96.68322266 -109.70996094 96.68322266 -109.4140625 95.33984375 C-106.19133987 82.80470831 -99.054164 70.97114086 -91 61 C-90.57283691 60.46745605 -90.14567383 59.93491211 -89.70556641 59.38623047 C-84.28033473 52.66110326 -78.73920743 46.44557529 -72 41 C-71.11957031 40.24460938 -70.23914062 39.48921875 -69.33203125 38.7109375 C-55.47947195 26.88959892 -40.6371256 17.55726755 -24.80957031 8.59619141 C-22.31735221 7.18029621 -19.8409018 5.74082241 -17.3671875 4.29296875 C-16.0582793 3.54774183 -14.74846886 2.80409592 -13.4375 2.0625 C-12.34308594 1.43472656 -11.24867188 0.80695313 -10.12109375 0.16015625 C-6.27292168 -1.27026566 -3.78206906 -1.42403239 0 0 Z " fill="#FEAF00" transform="translate(1124,112)"/>
<path d="M0 0 C23.67670634 6.22015167 44.49511987 24.28206783 56.9921875 44.90625 C70.97324614 69.00192408 75.85670612 94.52774915 79.2265625 121.84765625 C79.30132813 120.82671875 79.37609375 119.80578125 79.453125 118.75390625 C82.0192379 88.7233549 92.07914811 57.78350421 112.2265625 34.84765625 C112.87753906 34.05359375 113.52851562 33.25953125 114.19921875 32.44140625 C125.78643105 18.7533349 144.31760883 3.94311465 162.2265625 -0.15234375 C167.9899961 0.3532206 171.61282665 5.81561015 175.2265625 9.84765625 C193.48560572 31.82040317 201.88733474 56.12179426 201.6640625 84.53515625 C201.66201813 85.3214743 201.65997375 86.10779236 201.65786743 86.91793823 C201.60556939 99.28995824 200.57069604 110.88839773 197.2265625 122.84765625 C196.97648437 123.86214844 196.72640625 124.87664062 196.46875 125.921875 C194.41930935 133.99007526 191.74461464 141.91529438 189.2265625 149.84765625 C189.49170654 149.3057666 189.75685059 148.76387695 190.0300293 148.20556641 C206.56161154 114.74787024 231.77952182 83.0104596 268.19580078 70.15234375 C271.15335105 69.21187997 274.1332216 68.40107068 277.140625 67.63671875 C280.22401405 66.8996772 280.22401405 66.8996772 283.125 65.80859375 C290.69324098 63.4637735 298.38137912 63.72133436 306.2265625 63.78515625 C307.81791016 63.79192383 307.81791016 63.79192383 309.44140625 63.79882812 C312.03651848 63.81051782 314.63150959 63.82690349 317.2265625 63.84765625 C320.43141076 69.91128566 323.12781167 75.8030434 324.9765625 82.41015625 C325.18410156 83.10044922 325.39164063 83.79074219 325.60546875 84.50195312 C328.24483207 93.654584 328.40834025 102.74661399 328.4140625 112.22265625 C328.42630859 113.28226562 328.43855469 114.341875 328.45117188 115.43359375 C328.4640862 122.45898587 327.76554359 128.99506273 326.2265625 135.84765625 C326.07082764 136.5452002 325.91509277 137.24274414 325.75463867 137.96142578 C318.92427108 166.43621465 301.81221499 190.63454267 282.2265625 211.84765625 C283.1134375 211.06390625 284.0003125 210.28015625 284.9140625 209.47265625 C315.70460015 183.28229853 351.12411353 166.59503868 392.2265625 168.84765625 C406.94562632 170.30528997 420.73921801 174.91808498 434.2265625 180.84765625 C435.1576564 212.8841833 425.52132365 241.28574846 403.55859375 264.828125 C389.8485358 279.15097972 374.819538 289.01776893 357.53125 298.56982422 C354.41219264 300.29918293 351.31862474 302.0705607 348.2265625 303.84765625 C348.96777344 303.6053125 349.70898438 303.36296875 350.47265625 303.11328125 C375.90804438 295.01878809 403.73747421 289.77217728 430.2265625 295.84765625 C431.38542969 296.10417969 432.54429687 296.36070312 433.73828125 296.625 C453.16186728 301.35404446 469.99807958 309.82265156 485.2265625 322.84765625 C486.15210938 323.6159375 487.07765625 324.38421875 488.03125 325.17578125 C488.94132812 325.954375 489.85140625 326.73296875 490.7890625 327.53515625 C491.61535156 328.24027344 492.44164062 328.94539063 493.29296875 329.671875 C495.58760647 332.25392189 496.17155203 333.39699953 496.2265625 336.84765625 C495.3859971 339.47809694 494.50020893 341.79662277 493.3515625 344.28515625 C493.03348633 344.98672852 492.71541016 345.68830078 492.38769531 346.41113281 C486.56457763 358.87159389 478.90023661 369.1323451 469.2265625 378.84765625 C468.48277344 379.62625 467.73898437 380.40484375 466.97265625 381.20703125 C446.80379688 400.99005157 417.32210506 408.93811095 390.2265625 412.84765625 C389.56188965 412.94699463 388.8972168 413.04633301 388.21240234 413.14868164 C383.36175281 413.82420155 378.6195788 413.96905367 373.7265625 413.91015625 C372.99953125 413.90564453 372.2725 413.90113281 371.5234375 413.89648438 C369.75777569 413.88486818 367.9921572 413.86694066 366.2265625 413.84765625 C366.2265625 414.50765625 366.2265625 415.16765625 366.2265625 415.84765625 C367.41185547 415.79544922 367.41185547 415.79544922 368.62109375 415.7421875 C398.58937825 415.02294867 430.17608758 424.95295765 454.2265625 442.84765625 C455.0721875 443.4715625 455.9178125 444.09546875 456.7890625 444.73828125 C473.11132574 457.28602112 484.28926913 472.49834031 493.2265625 490.84765625 C493.53094238 491.46012207 493.83532227 492.07258789 494.14892578 492.70361328 C495.30007454 495.15249171 496.23226122 497.2299148 496.20703125 499.96484375 C487.91302038 515.89198813 464.79275559 526.92134414 448.9765625 532.59765625 C426.72770831 539.51191555 402.89704392 540.13743525 380.2265625 534.84765625 C378.48974698 534.4680006 376.7527579 534.08913832 375.015625 533.7109375 C364.79620583 531.43001281 354.9713602 528.6964419 345.2265625 524.84765625 C345.77368896 525.11803711 346.32081543 525.38841797 346.88452148 525.66699219 C364.9202374 534.65377681 380.78940056 544.7447846 395.2265625 558.84765625 C396.51626953 560.04455078 396.51626953 560.04455078 397.83203125 561.265625 C417.9135785 580.35087844 431.13381129 607.83431446 432.34667969 635.59716797 C432.46737029 641.35173541 432.38870148 647.09472519 432.2265625 652.84765625 C411.45313023 665.95304305 384.168011 667.83085267 360.62817383 662.82128906 C334.25608274 656.49804915 311.2160587 641.77944408 290.96875 624.1953125 C288.7728098 622.31531242 286.5653758 620.54301613 284.2265625 618.84765625 C284.82082031 619.45609375 285.41507813 620.06453125 286.02734375 620.69140625 C305.09727795 640.85867725 319.63290311 666.59933524 325.2265625 693.84765625 C325.48928955 694.97433716 325.48928955 694.97433716 325.75732422 696.1237793 C331.23277021 720.6753665 325.85426637 746.10504869 316.2265625 768.84765625 C314.39202999 770.68218876 311.84105917 770.01372241 309.39916992 770.0378418 C300.81135722 770.0283219 292.6761519 769.53541034 284.2265625 767.84765625 C283.23011719 767.6878125 282.23367188 767.52796875 281.20703125 767.36328125 C252.69322867 762.05505133 227.90602763 740.542999 211.7890625 717.34765625 C204.53152993 706.68455661 197.86271934 695.45368975 192.2265625 683.84765625 C192.46890625 684.67265625 192.71125 685.49765625 192.9609375 686.34765625 C200.91243354 713.74973492 206.61535616 741.54380958 199.2265625 769.84765625 C199.06027344 770.52022461 198.89398437 771.19279297 198.72265625 771.88574219 C193.27417436 793.68975954 182.8982979 811.233434 167.4765625 827.421875 C165.12378856 829.82941573 165.12378856 829.82941573 163.2265625 832.84765625 C141.64962933 829.1086931 121.35076909 812.66345554 108.6953125 795.4296875 C91.34061115 770.77873555 81.81684556 739.85040301 82.1640625 709.72265625 C82.17083008 708.57410156 82.17083008 708.57410156 82.17773438 707.40234375 C82.18930686 705.55074588 82.20723095 703.69918937 82.2265625 701.84765625 C81.5665625 701.84765625 80.9065625 701.84765625 80.2265625 701.84765625 C80.27296875 702.8428125 80.319375 703.83796875 80.3671875 704.86328125 C81.44647292 738.79486136 67.79575249 776.37698658 44.66357422 801.33642578 C31.66350322 815.00792416 16.13789437 825.76860362 -1.8125 831.8828125 C-5.49448764 831.83909497 -6.91646464 830.53124762 -9.46606445 827.9753418 C-10.00062256 827.39695557 -10.53518066 826.81856934 -11.0859375 826.22265625 C-11.65207764 825.6294458 -12.21821777 825.03623535 -12.80151367 824.42504883 C-24.2942661 812.09800047 -34.01246839 796.43125828 -37.7734375 779.84765625 C-38.03769531 778.70167969 -38.30195312 777.55570313 -38.57421875 776.375 C-45.60110676 744.7040498 -40.34502768 714.97668825 -29.7734375 684.84765625 C-30.3921875 686.00265625 -31.0109375 687.15765625 -31.6484375 688.34765625 C-49.27574203 719.96725618 -71.87591706 746.5770297 -105.7734375 760.84765625 C-106.64742187 761.23566406 -107.52140625 761.62367188 -108.421875 762.0234375 C-123.76061431 768.28957864 -140.40539622 769.52108423 -156.7734375 768.84765625 C-170.18480239 740.43095277 -172.82060961 712.60063774 -162.3515625 682.62109375 C-160.98436139 678.95573245 -159.41243449 675.40016203 -157.7734375 671.84765625 C-157.25007812 670.69265625 -156.72671875 669.53765625 -156.1875 668.34765625 C-147.99650986 651.11965821 -136.2009056 636.20111291 -123.7734375 621.84765625 C-124.70800781 622.646875 -125.64257812 623.44609375 -126.60546875 624.26953125 C-144.17398387 639.05475805 -162.75835739 650.25064453 -184.5234375 657.66015625 C-185.80033447 658.09581909 -185.80033447 658.09581909 -187.10302734 658.5402832 C-213.91449604 667.30407827 -245.35389823 664.95219876 -270.7734375 652.84765625 C-271.7634375 652.18765625 -272.7534375 651.52765625 -273.7734375 650.84765625 C-274.05570403 647.99160458 -274.14983717 645.38769556 -274.0859375 642.53515625 C-274.0746582 641.72135498 -274.06337891 640.90755371 -274.05175781 640.0690918 C-273.89747612 633.19746649 -273.20510778 626.57815217 -271.7734375 619.84765625 C-271.40605469 618.08035156 -271.40605469 618.08035156 -271.03125 616.27734375 C-265.69276361 593.64783065 -251.76709523 572.46128988 -233.7734375 557.84765625 C-232.93941406 557.10386719 -232.10539063 556.36007812 -231.24609375 555.59375 C-217.49449404 543.53987865 -201.09186304 534.92648269 -184.7734375 526.84765625 C-185.58683594 527.1621875 -186.40023437 527.47671875 -187.23828125 527.80078125 C-221.21586546 540.48982282 -261.88980616 543.28939309 -295.6171875 528.375 C-306.42342309 523.1457449 -316.03537453 517.40428216 -324.98046875 509.3515625 C-327.26459493 507.30383539 -329.58599786 505.45169249 -332.0234375 503.59765625 C-335.42281157 500.19828218 -335.55439173 498.58203184 -335.7734375 493.84765625 C-327.47734575 467.25332986 -305.67752687 446.27382411 -281.58886719 433.61376953 C-276.95239169 431.28838775 -272.21639858 429.34900979 -267.3359375 427.59765625 C-266.40817505 427.26459473 -266.40817505 427.26459473 -265.46166992 426.92480469 C-252.29863745 422.4656883 -239.04340003 420.0993882 -225.2734375 418.59765625 C-223.75639878 418.42415043 -222.23947065 418.24967481 -220.72265625 418.07421875 C-217.07411461 417.65425079 -213.42428281 417.24716818 -209.7734375 416.84765625 C-210.32990967 416.81325439 -210.88638184 416.77885254 -211.4597168 416.7434082 C-250.85303552 414.1456482 -288.21146681 401.08126004 -314.7734375 370.84765625 C-322.62371702 361.46197401 -328.46378267 350.8292646 -333.7734375 339.84765625 C-334.2065625 338.96207031 -334.6396875 338.07648438 -335.0859375 337.1640625 C-335.9499139 334.25305111 -335.77013306 332.70972698 -334.7734375 329.84765625 C-321.2522503 311.65925723 -295.22648678 299.21991712 -273.31640625 295.73828125 C-265.45098561 294.68448583 -257.63301616 294.44784843 -249.7109375 294.47265625 C-248.98977753 294.47386475 -248.26861755 294.47507324 -247.52560425 294.47631836 C-225.65941112 294.57520721 -206.47027986 300.08568707 -185.7734375 306.84765625 C-186.71960938 306.409375 -187.66578125 305.97109375 -188.640625 305.51953125 C-222.24046982 289.56035755 -252.37512731 263.68600914 -265.59765625 228.1171875 C-268.26777076 220.52588512 -270.67850156 212.83926661 -271.7734375 204.84765625 C-271.88300781 204.10257813 -271.99257813 203.3575 -272.10546875 202.58984375 C-273.0807757 194.70936357 -272.86192915 186.77257526 -272.7734375 178.84765625 C-247.39891609 168.18609263 -219.58879167 162.48312324 -192.7734375 171.84765625 C-191.25657786 172.33875003 -189.73964696 172.82962374 -188.22265625 173.3203125 C-163.92373023 181.46867788 -142.97859027 195.99631387 -124.7734375 213.84765625 C-125.33675781 213.14511719 -125.90007812 212.44257812 -126.48046875 211.71875 C-149.56131607 182.81854083 -166.93807651 152.59262601 -166.9609375 114.59765625 C-166.97318359 113.54191406 -166.98542969 112.48617187 -166.99804688 111.3984375 C-167.01633717 101.43632409 -165.50503981 91.9611152 -162.9609375 82.34765625 C-162.66574219 81.20296875 -162.37054687 80.05828125 -162.06640625 78.87890625 C-160.44475887 73.36442144 -158.0433744 68.1189239 -155.7734375 62.84765625 C-127.57224502 62.00833505 -127.57224502 62.00833505 -113.7734375 66.84765625 C-112.82186768 67.17709229 -112.82186768 67.17709229 -111.85107422 67.51318359 C-98.72279212 72.14264768 -87.3316544 78.76623175 -76.7734375 87.84765625 C-75.95101563 88.54761719 -75.12859375 89.24757813 -74.28125 89.96875 C-58.65378369 103.62452664 -47.66114038 119.73862373 -37.85253906 137.86279297 C-35.85361709 141.53954312 -33.81023774 145.19179376 -31.7734375 148.84765625 C-31.93948486 148.32034912 -32.10553223 147.79304199 -32.27661133 147.24975586 C-44.69886941 107.54420325 -46.59336681 68.05652472 -26.9609375 30.22265625 C-23.54672535 23.83739589 -19.58751708 18.27476469 -14.7734375 12.84765625 C-13.98195313 11.94789063 -13.19046875 11.048125 -12.375 10.12109375 C-10.19649731 7.67468458 -8.00461907 5.24606642 -5.7734375 2.84765625 C-5.31582031 2.23792969 -4.85820313 1.62820313 -4.38671875 1 C-2.7734375 -0.15234375 -2.7734375 -0.15234375 0 0 Z " fill="#F55200" transform="translate(1025.7734375,361.15234375)"/>
<path d="M0 0 C4.09837976 2.1779961 7.9450397 4.68869038 11.8125 7.25 C12.92980406 7.9799368 14.04740176 8.70942432 15.1652832 9.43847656 C29.28648179 18.693082 42.86400227 28.39473763 55.47314453 39.640625 C56.91888809 40.92778524 58.37897664 42.19878024 59.83984375 43.46875 C80.12254694 61.28092844 95.64382266 84.97227912 98.21582031 112.29248047 C98.8841314 123.44942916 97.38044823 134.12555863 95 145 C94.7839209 145.9909668 94.7839209 145.9909668 94.56347656 147.00195312 C93.75194466 150.67868949 92.89672039 154.34316152 92 158 C92.66 158 93.32 158 94 158 C94.10957031 157.27296875 94.21914062 156.5459375 94.33203125 155.796875 C97.76131197 134.05021675 105.52814491 115.81247071 120 99 C120.51949219 98.39542969 121.03898437 97.79085937 121.57421875 97.16796875 C149.09708098 67.56529325 194.69176444 58.89417375 233 55 C233.90105469 54.90283691 234.80210937 54.80567383 235.73046875 54.70556641 C248.68180621 53.44365393 248.68180621 53.44365393 253.49609375 56.67578125 C255.69456843 59.30775798 257.30157317 62.02049482 259 65 C259.80408045 66.1722258 260.62268641 67.33457832 261.453125 68.48828125 C279.39163046 93.44974254 295.01093797 120.131346 303 150 C303.22558594 150.8146875 303.45117188 151.629375 303.68359375 152.46875 C307.1597942 167.62018919 306.08341713 184.38836886 301 199 C300.76394043 199.68900391 300.52788086 200.37800781 300.28466797 201.08789062 C295.66756576 214.17414549 288.77358544 225.27000586 280 236 C280.33 236.66 280.66 237.32 281 238 C281.56654297 237.03513672 281.56654297 237.03513672 282.14453125 236.05078125 C288.78890904 225.14279804 296.81995131 214.82927423 307 207 C307.71027344 206.44183594 308.42054688 205.88367188 309.15234375 205.30859375 C335.91475523 185.4037719 369.03034951 181.76931531 401.34375 186.2421875 C416.862534 188.65425769 432.03487778 192.27417193 447 197 C449.41663669 197.72926601 451.83330115 198.45844001 454.25 199.1875 C456.17253411 199.77272735 458.08997638 200.37514942 460 201 C461.33804687 201.30550781 461.33804687 201.30550781 462.703125 201.6171875 C465.67165149 203.40436161 466.11818943 205.28784474 466.96337891 208.55786133 C467.22900635 209.73578247 467.22900635 209.73578247 467.5 210.9375 C467.80236572 212.18213013 467.80236572 212.18213013 468.11083984 213.4519043 C470.87873189 225.20527729 472.98555328 237.09855616 475 249 C475.25209229 250.43714355 475.25209229 250.43714355 475.50927734 251.90332031 C477.44898478 263.13955304 478.26652726 274.15598525 478.3125 285.5625 C478.31805908 286.70388428 478.32361816 287.84526855 478.3293457 289.02124023 C478.08565258 317.66663785 468.96516413 343.74537512 448.44873047 364.03100586 C441.39954403 370.7494359 433.52525785 375.8427683 425.25 380.9375 C421.97224007 382.62588385 421.97224007 382.62588385 421 385 C421.69222656 384.55515259 421.69222656 384.55515259 422.3984375 384.10131836 C449.45410384 366.83394831 476.79976703 358.31345316 509.0390625 364.953125 C519.27887469 367.54593787 528.8268965 370.97840948 538.3125 375.625 C539.39700439 376.15206543 540.48150879 376.67913086 541.59887695 377.22216797 C550.46133943 381.59838355 558.84729941 386.42088423 567 392 C567.58217285 392.39364746 568.1643457 392.78729492 568.76416016 393.19287109 C577.3356714 399.02245245 585.44980902 405.39232133 593.39453125 412.046875 C595.49799843 413.80404966 597.53923226 415.36097983 599.82421875 416.890625 C602.10451516 418.46653665 603.55953379 419.63283387 605 422 C605.78010329 426.77452104 604.84646645 431.29439478 604 436 C603.83741699 436.98210449 603.67483398 437.96420898 603.50732422 438.97607422 C601.2069212 452.84267999 598.45292108 466.54037893 594.56005859 480.05126953 C594.06078595 481.78849458 593.58535783 483.53253208 593.11328125 485.27734375 C584.37463127 516.0010136 568.98823623 544.02660134 540.52807617 560.20166016 C533.96813014 563.7399857 527.15688896 565.9562847 520 568 C518.42025391 568.46212891 518.42025391 568.46212891 516.80859375 568.93359375 C509.90333016 570.81521056 503.1399931 571.6328727 496 572 C496 572.66 496 573.32 496 574 C497.51400391 573.67515625 497.51400391 573.67515625 499.05859375 573.34375 C527.80850892 567.62969165 556.48399026 570.50479108 581.41015625 586.52734375 C596.84798297 596.91188562 610.3178581 610.84569857 621 626 C621.46229004 626.65564941 621.92458008 627.31129883 622.40087891 627.98681641 C630.18791058 639.14346179 637.0820359 650.74067732 643.67529297 662.63525391 C644.8818936 664.78916723 646.12109298 666.91869769 647.37890625 669.04296875 C648.03761719 670.18378906 648.69632813 671.32460938 649.375 672.5 C649.93960937 673.4590625 650.50421875 674.418125 651.0859375 675.40625 C652 678 652 678 651.4609375 680.33984375 C649.46891759 683.96702438 647.41553771 687.53581111 645.25 691.0625 C644.53070312 692.23474121 644.53070312 692.23474121 643.796875 693.43066406 C631.99269491 712.42425231 618.78536672 730.44544789 603.32226562 746.61474609 C602.17857825 747.81291489 601.04888643 749.02441367 599.921875 750.23828125 C582.34323281 768.66631162 558.71815498 780.49471115 533.1472168 781.39257812 C519.21990856 781.64063008 506.39462422 778.59270862 493 775 C493 775.66 493 776.32 493 777 C494.16273437 777.20753906 495.32546875 777.41507813 496.5234375 777.62890625 C524.61408643 782.92104725 548.54193008 795.55927998 565.28466797 819.39111328 C583.54207133 846.17004208 590.59725559 878.21075502 594 910 C594.20639886 911.82819651 594.4134202 913.65632285 594.62109375 915.484375 C595.12112657 919.98717892 595.60929473 924.48620495 596 929 C596.08459473 929.84119385 596.16918945 930.6823877 596.25634766 931.54907227 C596 934 596 934 594.43041992 935.6340332 C593.70443604 936.10156006 592.97845215 936.56908691 592.23046875 937.05078125 C591.42287109 937.58509766 590.61527344 938.11941406 589.78320312 938.66992188 C588.92662109 939.21197266 588.07003906 939.75402344 587.1875 940.3125 C585.53391023 941.39001732 583.88157789 942.46946664 582.23046875 943.55078125 C581.37710937 944.10443359 580.52375 944.65808594 579.64453125 945.22851562 C576.89184967 947.07244635 574.2346218 949.01388213 571.57421875 950.98828125 C542.779779 972.10757891 503.465246 992.65919066 466.62695312 987.67919922 C446.20221018 984.20327626 429.07161287 974.71600139 413 962 C412.34 962.66 411.68 963.32 411 964 C411.71027344 964.24878906 412.42054687 964.49757813 413.15234375 964.75390625 C434.04290011 973.89531569 449.44415632 995.73288388 458.24609375 1015.84765625 C467.34045636 1040.44136058 466.37613733 1066.59671142 462 1092 C461.79117187 1093.24595947 461.79117187 1093.24595947 461.578125 1094.51708984 C459.32221188 1107.68963807 455.79752616 1120.4292583 451.80810547 1133.17626953 C450.95178361 1136.0184724 450.95178361 1136.0184724 450.39892578 1139.05419922 C449.81493865 1141.88307562 449.20548568 1144.37449061 448 1147 C444.92777039 1148.83689253 443.3883526 1149.37137664 440 1150 C439.02708008 1150.23187012 438.05416016 1150.46374023 437.05175781 1150.70263672 C433.58711173 1151.51202201 430.1125139 1152.23333274 426.625 1152.9375 C424.7234314 1153.3255481 424.7234314 1153.3255481 422.78344727 1153.72143555 C414.20042215 1155.45097244 405.59026648 1156.97236867 396.9375 1158.3125 C395.91156738 1158.47161865 394.88563477 1158.6307373 393.82861328 1158.79467773 C361.2911705 1163.62399758 326.58687513 1162.74990289 298.9375 1142.8125 C285.37306878 1132.20147166 274.74322942 1119.40495117 267 1104 C267 1107.92903537 268.41425489 1109.47260139 270.5625 1112.75 C285.61090121 1136.44551647 291.0535662 1163.03434664 285.61230469 1190.85742188 C278.09306501 1223.73598165 257.48063062 1253.33768323 235.92578125 1278.64453125 C233.9858325 1280.91121346 233.9858325 1280.91121346 232.60546875 1283.26171875 C231.18362454 1285.44818009 230.2066519 1286.6011894 228 1288 C217.76059792 1288.58541559 207.11161574 1285.92955022 197.125 1283.875 C196.36298279 1283.72005066 195.60096558 1283.56510132 194.81585693 1283.40545654 C158.50366885 1275.98388373 117.16469298 1264.16216125 95.21606445 1231.72583008 C91.16407207 1225.44416993 87.79951558 1218.93213382 85 1212 C84.71640625 1211.34 84.4328125 1210.68 84.140625 1210 C80.03833468 1199.95357473 78.47439417 1189.80411991 79 1179 C78.01 1179 77.02 1179 76 1179 C76.31940552 1180.12704346 76.31940552 1180.12704346 76.64526367 1181.27685547 C78.8045509 1189.5895748 79.44015857 1197.4980041 79.33618164 1206.04833984 C79.31243985 1208.13027454 79.31566917 1210.21093118 79.32226562 1212.29296875 C79.30082325 1223.90793322 77.83992502 1234.05400001 73.4375 1244.8125 C72.91023315 1246.10716187 72.91023315 1246.10716187 72.37231445 1247.42797852 C56.14035825 1285.9542562 17.91159262 1310.26141176 -17.4375 1329.375 C-18.30705322 1329.85767334 -19.17660645 1330.34034668 -20.07250977 1330.83764648 C-23.53586445 1332.66370475 -26.11507993 1333.96722518 -30.05859375 1334.11328125 C-34.27178087 1332.51864867 -37.86546074 1330.27512281 -41.625 1327.8125 C-42.44677734 1327.28293701 -43.26855469 1326.75337402 -44.11523438 1326.20776367 C-57.56025494 1317.47129923 -70.82607391 1308.45546698 -83 1298 C-84.11467157 1297.07925768 -85.23064045 1296.16008446 -86.34765625 1295.2421875 C-97.71165766 1285.8233194 -108.14928666 1275.59462781 -116 1263 C-117.00160156 1261.39705078 -117.00160156 1261.39705078 -118.0234375 1259.76171875 C-126.73824152 1245.39018523 -131.39986344 1230.46307266 -131.375 1213.625 C-131.37483887 1212.59004395 -131.37467773 1211.55508789 -131.37451172 1210.48876953 C-131.1979992 1198.34285013 -129.06249298 1186.45549823 -125 1175 C-125.99 1175 -126.98 1175 -128 1175 C-127.95617187 1175.97839844 -127.91234375 1176.95679688 -127.8671875 1177.96484375 C-127.87385 1182.38763262 -128.90272426 1186.3348155 -130.125 1190.5625 C-130.34945801 1191.34826416 -130.57391602 1192.13402832 -130.80517578 1192.94360352 C-138.72984151 1219.80304616 -155.20584624 1240.57246001 -179.57128906 1254.16894531 C-192.15946877 1260.94189586 -205.10145519 1265.54904969 -218.84863281 1269.39501953 C-220.60985869 1269.89028936 -222.36456644 1270.40868594 -224.1171875 1270.93359375 C-242.56501831 1276.34458364 -264.86192773 1280.15668733 -284 1279 C-286.28125 1276.89453125 -286.28125 1276.89453125 -288.5 1273.8125 C-289.12068359 1272.95930176 -289.12068359 1272.95930176 -289.75390625 1272.08886719 C-291.19772765 1270.07783024 -292.60107887 1268.04251568 -294 1266 C-294.54785156 1265.20706543 -295.09570312 1264.41413086 -295.66015625 1263.59716797 C-320.02612459 1228.17248413 -345.27954241 1187.12420915 -337.01904297 1142.23803711 C-333.7081001 1127.36712314 -326.26372088 1113.78997439 -317.06640625 1101.78515625 C-315.40577694 1099.54691675 -314.1180049 1097.5353663 -313 1095 C-315.88328945 1098.5617105 -318.64867283 1102.19206681 -321.375 1105.875 C-336.52054014 1126.06081777 -355.5984011 1138.63202577 -380 1145 C-381.21816406 1145.32097656 -382.43632813 1145.64195313 -383.69140625 1145.97265625 C-411.10065109 1152.11758601 -441.47664784 1147.10525452 -468.19238281 1139.76123047 C-470.24094565 1139.20580273 -472.2960126 1138.67420469 -474.35449219 1138.15673828 C-477.93684572 1137.25209861 -481.49914015 1136.28903186 -485.0625 1135.3125 C-486.75088989 1134.89532715 -486.75088989 1134.89532715 -488.47338867 1134.46972656 C-495.95856487 1132.31127998 -495.95856487 1132.31127998 -498.50097656 1129.11010742 C-499.69176593 1126.42398116 -500.36435644 1123.87161588 -501 1121 C-501.29946533 1119.71955811 -501.59893066 1118.43911621 -501.9074707 1117.11987305 C-502.90817035 1112.66002213 -503.7684494 1108.1768273 -504.625 1103.6875 C-504.92625079 1102.15673696 -505.2283296 1100.62613664 -505.53125 1099.09570312 C-512.8589386 1061.78285604 -517.61831315 1019.61645103 -496.3125 985.875 C-485.9022646 971.0483011 -473.00900158 960.65597222 -457.484375 951.59375 C-454.90632113 950.23877476 -454.90632113 950.23877476 -454 948 C-454.73150269 948.46055786 -454.73150269 948.46055786 -455.4777832 948.93041992 C-473.68727647 960.35022344 -473.68727647 960.35022344 -483 964 C-483.92167969 964.36609375 -484.84335937 964.7321875 -485.79296875 965.109375 C-496.6660929 969.24866088 -506.53877302 970.47532626 -518.1875 970.5 C-519.24505493 970.50351974 -519.24505493 970.50351974 -520.32397461 970.5071106 C-533.25904858 970.48937077 -544.87096959 968.59197709 -557 964 C-557.72525879 963.72736328 -558.45051758 963.45472656 -559.19775391 963.17382812 C-563.91779222 961.34586808 -568.4659509 959.24531414 -573 957 C-573.66773438 956.67692871 -574.33546875 956.35385742 -575.0234375 956.02099609 C-596.00123129 945.79432162 -614.58734881 931.50133176 -632.22265625 916.34765625 C-634.82607034 914.00399704 -634.82607034 914.00399704 -637.3984375 912.625 C-639 911 -639 911 -639.12890625 907.90234375 C-638.96515208 906.57739247 -638.77386328 905.25569456 -638.5625 903.9375 C-638.45832764 903.20072021 -638.35415527 902.46394043 -638.24682617 901.70483398 C-637.86471352 899.13009139 -637.43756562 896.56589214 -637 894 C-636.83822266 893.03481445 -636.67644531 892.06962891 -636.50976562 891.07519531 C-629.66879189 851.13560702 -618.77869153 806.02620495 -585 780 C-572.73871006 771.32988285 -559.04261888 765.48786435 -544.3125 762.8125 C-543.38888672 762.63525391 -542.46527344 762.45800781 -541.51367188 762.27539062 C-537.2655862 761.48327098 -533.3343958 760.90524071 -529 761 C-529 760.34 -529 759.68 -529 759 C-530.01320313 759.20496094 -531.02640625 759.40992188 -532.0703125 759.62109375 C-533.4218645 759.89328131 -534.77342759 760.16541379 -536.125 760.4375 C-536.79015625 760.57220703 -537.4553125 760.70691406 -538.140625 760.84570312 C-540.0922625 761.237944 -542.04611903 761.61909189 -544 762 C-544.96292969 762.19078125 -545.92585937 762.3815625 -546.91796875 762.578125 C-573.02409457 766.15158709 -598.96148433 758.52686287 -620 743 C-625.18303619 738.81000185 -629.87621412 734.1302216 -634.578125 729.4140625 C-636.04163054 727.95527794 -637.52268984 726.51342692 -639.03515625 725.10546875 C-655.1868855 709.82512373 -666.58290791 689.52712993 -677.125 670.1875 C-677.96019165 668.65706055 -677.96019165 668.65706055 -678.81225586 667.09570312 C-680.24974601 664.41602306 -681.63584805 661.71755385 -683 659 C-683.54527344 657.948125 -684.09054687 656.89625 -684.65234375 655.8125 C-685.21345188 651.27319828 -682.90140803 648.49724515 -680.4375 644.8125 C-679.93806885 644.03366455 -679.4386377 643.2548291 -678.92407227 642.45239258 C-677.30716765 639.95122373 -675.65781051 637.47421487 -674 635 C-673.45730469 634.18112305 -672.91460938 633.36224609 -672.35546875 632.51855469 C-650.00027327 598.86571567 -623.98749821 564.44614847 -583 554 C-581.95199219 553.72506714 -581.95199219 553.72506714 -580.8828125 553.44458008 C-575.18925751 552.04558156 -569.73042422 551.57905432 -563.875 551.5625 C-562.93938232 551.55935791 -562.00376465 551.55621582 -561.03979492 551.55297852 C-549.18810584 551.74868726 -537.23963502 554.25345499 -526 558 C-526 557.34 -526 556.68 -526 556 C-527.83111328 555.65388672 -527.83111328 555.65388672 -529.69921875 555.30078125 C-549.3880916 551.45611346 -567.94699253 544.67560809 -583 531 C-584.33804688 529.80117187 -584.33804688 529.80117187 -585.703125 528.578125 C-593.17272207 521.52582385 -598.78898366 513.8133372 -604 505 C-604.3515918 504.40687012 -604.70318359 503.81374023 -605.06542969 503.20263672 C-620.35686162 476.69504922 -627.01320857 443.30185832 -628.85205078 412.9921875 C-628.99009756 411.13333982 -629.23900892 409.28365249 -629.49609375 407.4375 C-629.81677105 404.27031682 -629.90735398 402.05115407 -629 399 C-625.84172317 395.21128019 -622.11175908 392.67871989 -618 390 C-617.09765625 389.36964844 -616.1953125 388.73929687 -615.265625 388.08984375 C-612.81159747 386.40183329 -610.33076594 384.76869131 -607.82128906 383.16455078 C-606.51343823 382.32829764 -605.208426 381.48759884 -603.90527344 380.64404297 C-570.4651917 359.00421509 -535.63632589 339.94142825 -494.4375 345.5 C-476.11504725 349.6879892 -459.59454624 359.44598423 -445 371 C-448.07237083 367.6097977 -451.3154274 365.00661457 -455.0625 362.375 C-473.00889617 349.50777256 -485.79094732 333.3613891 -492.875 312.375 C-493.16125244 311.52897217 -493.44750488 310.68294434 -493.74243164 309.8112793 C-497.51070255 298.03755639 -498.34936547 286.62713426 -498.25 274.3125 C-498.24623352 273.60324371 -498.24246704 272.89398743 -498.23858643 272.16323853 C-498.17329659 261.67003923 -497.98721748 251.34137515 -496 241 C-495.81695313 240.04448242 -495.63390625 239.08896484 -495.4453125 238.10449219 C-491.87531834 220.01762363 -486.82635909 202.47907728 -481 185 C-476.2302019 183.0652309 -471.0154769 182.1345603 -466 181 C-464.96069336 180.76345703 -463.92138672 180.52691406 -462.85058594 180.28320312 C-422.63572566 171.25982882 -374.71124763 162.92485408 -337.6875 186.3125 C-324.02758399 195.32436857 -313.5502067 206.95155936 -305.04296875 220.80078125 C-303.18583382 223.70899063 -301.20925411 226.35385969 -299 229 C-300.9468358 225.57356899 -302.90324772 222.16138437 -304.9296875 218.78125 C-318.31627099 196.20147062 -325.22286655 170.03590143 -319 144 C-318.75507812 142.8140625 -318.51015625 141.628125 -318.2578125 140.40625 C-315.92139846 129.60033509 -311.83678193 119.91017032 -307 110 C-306.69610352 109.36771484 -306.39220703 108.73542969 -306.07910156 108.08398438 C-297.29584235 90.0127925 -285.23946034 73.47920747 -272.58251953 57.94921875 C-271.56444592 56.69523854 -270.55667531 55.43278525 -269.56201172 54.16015625 C-268.29770732 52.54345965 -266.99382593 50.9579359 -265.6875 49.375 C-264.99011719 48.51648438 -264.29273438 47.65796875 -263.57421875 46.7734375 C-258.62600271 43.36449959 -252.89202917 44.77435875 -247.23046875 45.734375 C-245.54768502 46.06388274 -243.86672371 46.40280527 -242.1875 46.75 C-241.2795166 46.93191895 -240.3715332 47.11383789 -239.43603516 47.30126953 C-237.5500331 47.67938342 -235.66461456 48.06041928 -233.77978516 48.44433594 C-231.14252149 48.97151072 -228.50157441 49.4647589 -225.85546875 49.9453125 C-214.24000326 52.08649575 -203.14230218 55.08555359 -192 59 C-191.13165527 59.30454102 -190.26331055 59.60908203 -189.36865234 59.92285156 C-160.16485503 70.30337326 -136.21486799 85.10547648 -121.28515625 113.23046875 C-115.48732882 125.57851343 -111.45485646 140.30727687 -112 154 C-111.01 154 -110.02 154 -109 154 C-109.20496094 153.26136719 -109.40992188 152.52273438 -109.62109375 151.76171875 C-114.37731201 133.85193993 -114.208092 115.95321495 -110 98 C-109.70996094 96.68322266 -109.70996094 96.68322266 -109.4140625 95.33984375 C-106.19133987 82.80470831 -99.054164 70.97114086 -91 61 C-90.57283691 60.46745605 -90.14567383 59.93491211 -89.70556641 59.38623047 C-84.28033473 52.66110326 -78.73920743 46.44557529 -72 41 C-71.11957031 40.24460938 -70.23914062 39.48921875 -69.33203125 38.7109375 C-55.47947195 26.88959892 -40.6371256 17.55726755 -24.80957031 8.59619141 C-22.31735221 7.18029621 -19.8409018 5.74082241 -17.3671875 4.29296875 C-16.0582793 3.54774183 -14.74846886 2.80409592 -13.4375 2.0625 C-12.34308594 1.43472656 -11.24867188 0.80695313 -10.12109375 0.16015625 C-6.27292168 -1.27026566 -3.78206906 -1.42403239 0 0 Z M-14.4453125 67.640625 C-15.51362305 68.21063232 -16.58193359 68.78063965 -17.68261719 69.36791992 C-18.81860352 69.98900635 -19.95458984 70.61009277 -21.125 71.25 C-21.70624634 71.5657901 -22.28749268 71.8815802 -22.88635254 72.2069397 C-38.60277809 80.76265736 -53.24638872 90.54676757 -67 102 C-68.37091797 103.13888672 -68.37091797 103.13888672 -69.76953125 104.30078125 C-88.10128134 120.15450675 -103.08617605 143.72787382 -105.1953125 168.27294922 C-105.82006487 180.45822353 -105.15830988 193.46855243 -101 205 C-101.99 205 -102.98 205 -104 205 C-104.02578125 204.2471875 -104.0515625 203.494375 -104.078125 202.71875 C-105.06955724 184.15192811 -110.71104707 166.26396322 -123 152 C-123.81984375 150.95005859 -123.81984375 150.95005859 -124.65625 149.87890625 C-146.01101926 123.77360569 -185.26264813 114.55470576 -216.90917969 109.35595703 C-221.25710318 108.61573372 -225.58490441 107.76075302 -229.91308594 106.91357422 C-232.66791173 106.38522224 -235.18595702 106 -238 106 C-239.96710939 107.93920957 -239.96710939 107.93920957 -241.9375 110.5625 C-242.73414063 111.573125 -243.53078125 112.58375 -244.3515625 113.625 C-244.99399902 114.44871094 -244.99399902 114.44871094 -245.64941406 115.2890625 C-247.02082236 117.02637799 -248.42296031 118.73386967 -249.8359375 120.4375 C-265.99478437 140.01935472 -280.86923505 162.4176261 -288 187 C-288.31453125 187.93070312 -288.6290625 188.86140625 -288.953125 189.8203125 C-291.22287113 197.55808338 -291.27830672 205.16721318 -291.3125 213.1875 C-291.32083862 214.84507324 -291.32083862 214.84507324 -291.3293457 216.53613281 C-291.15313931 236.62667363 -283.33525512 256.19545437 -271 272 C-273.98597272 269.20834221 -276.09730226 266.44180683 -278.1875 262.9375 C-292.16944612 240.59613503 -311.17465031 228.08931921 -336.484375 222.1875 C-362.21434054 217.75554421 -389.81093209 221.97341463 -415.1293335 227.13378906 C-416.74051892 227.45905735 -418.35423097 227.77207102 -419.97027588 228.07226562 C-428.62194623 229.41092021 -428.62194623 229.41092021 -435.78271484 233.88037109 C-436.89827673 236.25326308 -437.4666173 238.43476488 -438 241 C-438.58568916 242.82292207 -439.17982418 244.64314663 -439.78125 246.4609375 C-440.36309919 248.42967371 -440.93570355 250.40116103 -441.5 252.375 C-441.80188232 253.42357178 -442.10376465 254.47214355 -442.41479492 255.55249023 C-445.07258937 264.95430432 -447.27490584 274.38490544 -449 284 C-449.22558594 285.22074219 -449.45117188 286.44148437 -449.68359375 287.69921875 C-454.22206431 316.15073418 -450.97535654 346.64682982 -434.12890625 370.66796875 C-426.79607042 380.18442571 -418.46773962 388.042191 -408.55810547 394.77734375 C-404.08992806 397.82014388 -404.08992806 397.82014388 -403 400 C-404.57974609 398.82244141 -404.57974609 398.82244141 -406.19140625 397.62109375 C-424.90603052 383.89018399 -445.23222492 374.10068834 -469 376 C-470.08925781 376.0721875 -471.17851563 376.144375 -472.30078125 376.21875 C-505.88459375 379.69157667 -537.01960707 401.13827051 -563.34033203 420.78588867 C-564.86322787 421.8999459 -566.43001673 422.95334448 -568 424 C-573.43499366 455.14894214 -559.64665478 499.13596155 -543 525 C-540.51456719 528.52218691 -537.8528095 531.77275926 -535 535 C-534.484375 535.66902344 -533.96875 536.33804687 -533.4375 537.02734375 C-521.9662547 551.50979094 -503.4878137 559.72106686 -486 564 C-493.5 563.09482759 -493.5 563.09482759 -496.71875 562.484375 C-519.09316906 559.18148457 -539.56209859 565.48483615 -557.86328125 578.3828125 C-581.44749387 596.23265532 -598.66907872 619.9848945 -613.84912109 645.13574219 C-614.80466918 646.68359226 -615.84032135 648.18164776 -616.89453125 649.6640625 C-618.46492419 652.98241932 -618.05382942 654.47887155 -617 658 C-615.57671005 661.29723781 -613.93999317 664.45743154 -612.25 667.625 C-611.76337891 668.54289307 -611.27675781 669.46078613 -610.77539062 670.40649414 C-602.61391059 685.52824779 -593.13823056 699.90270478 -582 713 C-581.53271484 713.55236328 -581.06542969 714.10472656 -580.58398438 714.67382812 C-564.05175933 733.98006657 -541.89017652 749.50041955 -516 752 C-513.29916533 752.11419458 -510.63688197 752.19067537 -507.9375 752.1875 C-507.20942139 752.18669434 -506.48134277 752.18588867 -505.73120117 752.18505859 C-496.30004675 752.08089208 -486.91737867 751.2205404 -478 748 C-478 748.99 -478 749.98 -478 751 C-478.87140625 751.03738281 -479.7428125 751.07476563 -480.640625 751.11328125 C-505.24434615 752.47127885 -525.49742282 762.49989106 -542.21484375 780.3671875 C-557.43461004 798.26924924 -564.73988217 821.50639112 -570 844 C-570.38333496 845.59980713 -570.38333496 845.59980713 -570.77441406 847.23193359 C-572.65804494 855.12783846 -574.39220825 863.04352568 -576 871 C-576.25813477 872.20003662 -576.25813477 872.20003662 -576.52148438 873.42431641 C-577.34917651 877.44199393 -577.87087968 880.96492413 -577 885 C-574.76051757 888.34819171 -572.0288121 890.48717073 -568.73681641 892.77050781 C-566.79414119 894.14572744 -564.93742495 895.6049159 -563.07421875 897.0859375 C-531.59564427 921.97214036 -498.33945684 941.26294038 -457 938 C-440.06084198 935.96176019 -424.82134413 927.52376994 -411 918 C-413.80776807 921.00365886 -416.60609733 923.13660656 -420.125 925.25 C-440.62088788 938.03943404 -453.89210438 955.2461409 -460.2734375 978.74609375 C-466.91063169 1008.47073226 -461.15226305 1042.84271234 -453.52734375 1071.74487305 C-453 1074 -453 1074 -452.78515625 1076.23364258 C-452.57907465 1078.67455055 -452.57907465 1078.67455055 -451 1082 C-447.639409 1084.11586841 -444.05166967 1085.11268086 -440.25 1086.1875 C-439.17250488 1086.51645264 -438.09500977 1086.84540527 -436.98486328 1087.18432617 C-399.93748148 1098.23673182 -358.71853274 1105.28117918 -322.7265625 1087.37109375 C-308.22232268 1079.33596861 -291.74317563 1066.15085938 -286 1050 C-285.34 1050 -284.68 1050 -284 1050 C-284.3403125 1050.49886719 -284.680625 1050.99773438 -285.03125 1051.51171875 C-301.1392592 1075.3738494 -311.07249514 1097.29251482 -305.75 1126.375 C-303.4790186 1137.75514015 -299.7063547 1148.45636466 -294.625 1158.875 C-294.10679687 1159.94290771 -293.58859375 1161.01081543 -293.0546875 1162.11108398 C-284.41296198 1179.57071305 -274.03617355 1195.70766355 -262 1211 C-261.52175781 1211.79277344 -261.04351563 1212.58554688 -260.55078125 1213.40234375 C-259.04143319 1215.27321402 -259.04143319 1215.27321402 -256.2421875 1215.4609375 C-234.71232282 1214.91145139 -212.4664696 1211.81463486 -192 1205 C-190.92419678 1204.64663574 -190.92419678 1204.64663574 -189.82666016 1204.28613281 C-173.41891097 1198.82487739 -158.87684647 1191.74065414 -146 1180 C-144.90945313 1179.01386719 -144.90945313 1179.01386719 -143.796875 1178.0078125 C-128.75370067 1163.71105522 -120.15083672 1143.45583012 -118 1123 C-117.34 1123 -116.68 1123 -116 1123 C-116.27714844 1124.15757813 -116.55429687 1125.31515625 -116.83984375 1126.5078125 C-117.20583437 1128.04684999 -117.57171391 1129.58591389 -117.9375 1131.125 C-118.11990234 1131.88554688 -118.30230469 1132.64609375 -118.49023438 1133.4296875 C-121.93669902 1147.96750202 -123.53797375 1164.81033231 -118 1179 C-117.64808594 1180.02867188 -117.29617188 1181.05734375 -116.93359375 1182.1171875 C-108.20451935 1206.60468995 -89.43473468 1224.776533 -69 1240 C-68.32195313 1240.51175781 -67.64390625 1241.02351563 -66.9453125 1241.55078125 C-58.30153077 1248.0573642 -49.44919201 1254.1773213 -40.25 1259.875 C-39.41645996 1260.40536865 -38.58291992 1260.9357373 -37.72412109 1261.48217773 C-33.17289542 1264.23650141 -33.17289542 1264.23650141 -28.01953125 1265.11328125 C-23.63975995 1263.49848847 -19.55729808 1261.50181079 -15.4375 1259.3125 C-14.52291016 1258.82918213 -13.60832031 1258.34586426 -12.66601562 1257.84790039 C-2.31266099 1252.25634582 7.39076772 1245.77372112 17 1239 C17.62841797 1238.56365234 18.25683594 1238.12730469 18.90429688 1237.67773438 C41.78360055 1221.66484257 62.21119339 1198.02949586 67.5859375 1169.9375 C69.1090698 1155.45337397 69.2816177 1140.01720082 65 1126 C65.99 1126 66.98 1126 68 1126 C67.93039062 1126.804375 67.93039062 1126.804375 67.859375 1127.625 C66.94187673 1147.54781967 76.98517758 1167.51291323 89.5390625 1182.33984375 C113.67956272 1208.43457495 153.84881691 1217.40103932 187.5 1222.8125 C188.65640991 1222.99848755 188.65640991 1222.99848755 189.83618164 1223.18823242 C191.88532156 1223.49750646 193.94267384 1223.75093394 196 1224 C197.05960938 1224.13792969 198.11921875 1224.27585937 199.2109375 1224.41796875 C203.2020791 1223.81985649 204.79201786 1221.54447142 207.125 1218.5 C207.59164062 1217.91831055 208.05828125 1217.33662109 208.5390625 1216.73730469 C210.04751597 1214.84070527 211.52494331 1212.92265348 213 1211 C213.49338867 1210.36900391 213.98677734 1209.73800781 214.49511719 1209.08789062 C237.74299561 1179.33424583 258.59580063 1144.98767631 254.78173828 1105.75488281 C252.6152988 1088.47667123 244.99043245 1073.71415497 236 1059 C238.39572682 1062.10121693 240.51048561 1065.32705369 242.625 1068.625 C246.597448 1074.60918313 251.04364766 1079.81794856 256 1085 C256.57363281 1085.63679688 257.14726563 1086.27359375 257.73828125 1086.9296875 C270.73573551 1100.88876726 290.86080607 1108.18700542 309.59155273 1109.19287109 C330.30679136 1109.62726321 349.95095358 1108.68820429 370.29492188 1104.64306641 C373.95025515 1104.00863389 377.53685175 1103.66752409 381.234375 1103.38671875 C390.72390086 1102.40778172 390.72390086 1102.40778172 399 1098 C404.75577855 1089.13543703 406.21266043 1078.23298104 408 1068 C408.43042346 1065.93545802 408.86955853 1063.87269872 409.3203125 1061.8125 C410.18794505 1057.72110499 410.96198381 1053.63179313 411.60595703 1049.49926758 C411.89271348 1047.6804784 412.20434793 1045.86555878 412.53076172 1044.0534668 C413.97954233 1035.63860508 414.3020295 1027.4660022 414.25 1018.9375 C414.25773437 1017.66583984 414.26546875 1016.39417969 414.2734375 1015.08398438 C414.22588523 991.91414161 407.74703136 970.2991581 392 953 C391.17757812 952.09636719 390.35515625 951.19273437 389.5078125 950.26171875 C383.65885707 944.13303067 377.63266742 939.38219421 370.5546875 934.77734375 C368 933 368 933 367 931 C367.99257812 931.71285156 368.98515625 932.42570312 370.0078125 933.16015625 C391.65167942 948.50240649 414.1997763 957.74717113 441.16796875 953.43359375 C444.49319982 952.74098837 447.73774238 951.94330341 451 951 C451.76699219 950.7834375 452.53398438 950.566875 453.32421875 950.34375 C455.58584547 949.64143338 457.78502801 948.83819391 460 948 C461.03769531 947.62488281 462.07539062 947.24976563 463.14453125 946.86328125 C482.75650045 939.4477046 500.25567486 928.70411843 517.41455078 916.76220703 C519.63709349 915.24735214 521.8813153 913.82229693 524.18359375 912.43359375 C529.75716153 908.96712481 529.75716153 908.96712481 532.80859375 903.4140625 C532.93118601 900.58329576 532.73444702 897.96560071 532.31347656 895.16650391 C531.95104176 892.66163907 531.70586268 890.15576104 531.4609375 887.63671875 C528.24645799 856.61223787 521.48253981 821.01270561 500 797 C499.00613281 795.79537109 499.00613281 795.79537109 497.9921875 794.56640625 C487.04504351 781.67702704 473.6089216 774.10420582 457.8125 768.6875 C456.70817627 768.30525269 456.70817627 768.30525269 455.58154297 767.9152832 C450.38168152 766.21276103 445.45267936 765.45843496 440 765 C440 764.34 440 763.68 440 763 C440.59425781 763.19335938 441.18851563 763.38671875 441.80078125 763.5859375 C465.05781919 770.89219203 489.09382544 770.20604542 511 759 C515.16584645 756.54021536 519.1022741 753.86341316 523 751 C523.84046875 750.38382813 524.6809375 749.76765625 525.546875 749.1328125 C536.84969592 740.45771746 546.14474324 730.14764742 554.65429688 718.79443359 C555.97176942 717.03764419 557.30534939 715.29405775 558.640625 713.55078125 C564.30693277 706.07046584 569.52764363 698.31493753 574.625 690.4375 C575.24157471 689.49712891 575.85814941 688.55675781 576.4934082 687.58789062 C577.06534912 686.69134766 577.63729004 685.79480469 578.2265625 684.87109375 C578.73783691 684.07630615 579.24911133 683.28151855 579.77587891 682.46264648 C581.23044906 679.53639017 581.80640346 677.2658206 582 674 C581.15467081 671.31638881 581.15467081 671.31638881 579.640625 668.76171875 C579.10735596 667.78501221 578.57408691 666.80830566 578.0246582 665.80200195 C577.439021 664.77421631 576.85338379 663.74643066 576.25 662.6875 C575.35897583 661.08878052 575.35897583 661.08878052 574.44995117 659.45776367 C564.38079989 641.58169334 553.12311238 624.95101896 539 610 C537.84757812 608.75089844 537.84757812 608.75089844 536.671875 607.4765625 C521.48908537 591.55912176 499.84891516 579.39536377 477.5078125 578.796875 C465.29525121 578.65140761 453.8833178 579.02474308 442 582 C442 581.34 442 580.68 442 580 C442.95777344 579.91363281 443.91554688 579.82726562 444.90234375 579.73828125 C467.39674344 577.46969833 486.08993848 570.31016662 502 554 C502.72703125 553.28199219 503.4540625 552.56398438 504.203125 551.82421875 C514.66173433 540.89208971 520.83675877 527.01316838 526 513 C526.39614502 511.93507324 526.39614502 511.93507324 526.80029297 510.84863281 C532.86667608 494.3039516 536.38435565 477.20815606 539.375 459.875 C539.55498535 458.84938965 539.7349707 457.8237793 539.92041016 456.76708984 C540.07815918 455.81012207 540.2359082 454.8531543 540.3984375 453.8671875 C540.53942871 453.02269043 540.68041992 452.17819336 540.82568359 451.30810547 C541.00759217 448.89947292 540.80831448 447.26771215 540 445 C518.2008024 420.17444959 477.30830613 395.59991518 444 392 C417.83713843 390.49229109 396.95840189 397.79162231 375 412 C377.22330225 409.46812555 379.76509416 407.83308489 382.63256836 406.09545898 C390.6535928 401.22729496 397.36399346 395.60620411 404 389 C404.65484375 388.37996094 405.3096875 387.75992187 405.984375 387.12109375 C415.15646529 377.71759751 421.13844008 363.61615921 424 351 C424.22300781 350.03320312 424.44601562 349.06640625 424.67578125 348.0703125 C429.85567367 319.80994706 424.7366863 289.89821649 418.4375 262.25 C418.28997284 261.59163147 418.14244568 260.93326294 417.990448 260.25494385 C417.5696099 258.40092065 417.12710427 256.55185569 416.68359375 254.703125 C416.43150146 253.64770508 416.17940918 252.59228516 415.91967773 251.50488281 C415.16292395 248.68258616 415.16292395 248.68258616 412 247 C409.23393818 246.15023806 406.48280195 245.36419373 403.6875 244.625 C402.03884028 244.18181542 400.39040431 243.73779769 398.7421875 243.29296875 C397.92975586 243.07431152 397.11732422 242.8556543 396.28027344 242.63037109 C393.27044997 241.79831925 390.29562852 240.86015466 387.3125 239.9375 C381.04942588 238.13759786 374.72889614 236.9375625 368.3125 235.8125 C367.36221924 235.64548584 366.41193848 235.47847168 365.43286133 235.30639648 C334.42752907 230.09006948 303.75746407 230.91965115 277 249 C273.47976185 251.82239358 270.22856487 254.85108722 267 258 C266.21625 258.73347656 265.4325 259.46695313 264.625 260.22265625 C259.92144287 264.72758343 256.08510383 269.3922333 252.5078125 274.8359375 C251.14177125 276.7965252 249.74630996 278.37917339 248 280 C248.3403125 279.50113281 248.680625 279.00226563 249.03125 278.48828125 C250.70755289 276.00503469 252.35579701 273.50462278 254 271 C254.97453125 269.53240234 254.97453125 269.53240234 255.96875 268.03515625 C269.56518935 246.88223426 273.77326049 225.37142523 268.83227539 200.73095703 C267.02526507 192.44977345 264.47390097 184.72481108 261 177 C260.66258789 176.24960449 260.32517578 175.49920898 259.97753906 174.72607422 C251.21682842 155.62991325 239.56726474 138.25507334 227.328125 121.23828125 C225.85074867 119.18334001 224.40388739 117.10583108 223 115 C212.26934152 113.41420334 200.67093434 115.88369573 190.0625 117.5625 C189.20416565 117.69660278 188.3458313 117.83070557 187.46148682 117.96887207 C161.89247577 122.01030845 135.18437859 128.8382405 115 146 C114.13246094 146.73089844 113.26492188 147.46179688 112.37109375 148.21484375 C102.61661228 156.71912342 96.023818 165.62460627 90 177 C89.37931641 178.15822266 89.37931641 178.15822266 88.74609375 179.33984375 C86.41664084 184.09923578 85.06770546 189.07531232 83.75 194.1875 C83.57436523 194.86538574 83.39873047 195.54327148 83.21777344 196.24169922 C82.24576579 200.24067614 81.82101129 203.8896521 82 208 C81.34 208 80.68 208 80 208 C80.15146484 207.32122803 80.30292969 206.64245605 80.45898438 205.94311523 C84.70142164 187.15434754 84.70142164 187.15434754 85 168 C84.90460937 166.91074219 84.80921875 165.82148438 84.7109375 164.69921875 C82.48944608 146.51348021 73.89825935 130.65263408 62 117 C61.26652344 116.14535156 60.53304687 115.29070312 59.77734375 114.41015625 C55.17014591 109.15494773 50.40652123 104.4203154 45 100 C44.48727539 99.57493164 43.97455078 99.14986328 43.44628906 98.71191406 C34.00245931 90.89836497 24.23781297 83.73552227 14 77 C13.17757812 76.45682129 12.35515625 75.91364258 11.5078125 75.35400391 C8.93020158 73.66026971 6.34246338 71.9833966 3.75 70.3125 C2.93950195 69.78269531 2.12900391 69.25289063 1.29394531 68.70703125 C0.53178711 68.22234375 -0.23037109 67.73765625 -1.015625 67.23828125 C-2.02544434 66.589198 -2.02544434 66.589198 -3.05566406 65.92700195 C-7.46274869 63.82583416 -10.50005059 65.53035313 -14.4453125 67.640625 Z " fill="#097587" transform="translate(1124,112)"/>
<path d="M0 0 C9.74487482 5.60681526 21.77241772 13.90319124 26.4609375 24.44140625 C27.80389826 30.81560404 27.26474313 37.52850132 27 44 C27.21914062 43.28714844 27.43828125 42.57429687 27.6640625 41.83984375 C30.6647219 32.77687653 34.46868198 26.91310133 42.79296875 22.05859375 C46.71634358 20.17676264 50.80779014 19.11051917 55 18 C56.6396875 17.4121875 56.6396875 17.4121875 58.3125 16.8125 C59.529375 16.544375 60.74625 16.27625 62 16 C63.46953125 15.66162109 63.46953125 15.66162109 64.96875 15.31640625 C68.83376597 14.80618802 71.27955323 14.7730911 75 16 C79.6359461 20.32363293 82.27989671 26.3754689 85 32 C85.56976562 33.093125 86.13953125 34.18625 86.7265625 35.3125 C90.83037811 43.93280543 91.46382586 52.14478498 88.5 61.25 C88.01850263 62.50724313 87.52579382 63.76062885 87 65 C87.46148438 64.52949219 87.92296875 64.05898438 88.3984375 63.57421875 C95.60197997 56.69811003 102.14420217 54.91021997 112 54.5 C120.66084783 54.7297776 130.30119379 55.7176097 138 60 C140.54346363 63.22284353 140.84194026 65.96947666 141 70 C141.17402344 71.04994141 141.17402344 71.04994141 141.3515625 72.12109375 C141.7259671 74.42411742 141.88135782 76.66903007 142 79 C142.06445312 80.17046875 142.12890625 81.3409375 142.1953125 82.546875 C142.50739123 92.90788882 141.29852161 101.21491028 134 109 C133.34 109.66 132.68 110.32 132 111 C132.67417969 110.68289063 133.34835937 110.36578125 134.04296875 110.0390625 C142.33858311 107.12409101 151.4279515 107.83570147 159.33251953 111.46118164 C166.90255402 115.31134859 173.96726395 119.96726395 180 126 C180.32349539 131.86820634 179.59643927 136.71830501 177.875 142.3125 C177.64981689 143.05089111 177.42463379 143.78928223 177.19262695 144.55004883 C174.02217285 154.51790436 170.31666822 162.5872798 161 168 C159.67414017 168.6814088 158.34274498 169.35249853 157 170 C158.2684375 170.32871094 158.2684375 170.32871094 159.5625 170.6640625 C174.29534526 174.78256242 182.80178617 183.25330152 190.625 196.1875 C191.17607422 197.06051758 191.17607422 197.06051758 191.73828125 197.95117188 C193.46899531 200.95768898 194.06820646 202.60731134 193.46875 206.05859375 C186.9420249 219.12940226 176.6596588 229.75892771 163 235 C160.23629206 235.64006119 157.84675571 235.8905094 155 236 C155.58007812 236.268125 156.16015625 236.53625 156.7578125 236.8125 C166.15418877 241.52619371 170.17103822 248.13643953 173.96484375 257.7734375 C175.67810873 263.11365211 176.41774769 268.43874399 177 274 C177.226875 275.27875 177.45375 276.5575 177.6875 277.875 C176.71876657 282.27833378 174.52383355 283.69472585 170.90625 286.23046875 C159.43330531 293.21601169 147.51013449 299.30600276 133.73828125 296.546875 C132.1400129 296.09300569 130.56545478 295.55660614 129 295 C129.39832031 295.46148438 129.79664063 295.92296875 130.20703125 296.3984375 C136.98265577 304.74020394 139.02896744 313.35831039 138 324 C136.86807015 331.09632946 135.6677703 338.30071114 133 345 C130.625 346.25 130.625 346.25 127 347 C126.15179687 347.18304687 125.30359375 347.36609375 124.4296875 347.5546875 C112.06593902 349.9614972 99.03396068 351.08823119 88.125 344 C85.86888633 342.42779535 83.94697377 340.94697377 82 339 C82.48146484 340.01900391 82.48146484 340.01900391 82.97265625 341.05859375 C86.08548859 349.97099966 84.52037251 359.87602896 80.55859375 368.21484375 C78.0253097 372.74173981 75.14628705 376.88281694 72 381 C71.36771484 381.96679688 71.36771484 381.96679688 70.72265625 382.953125 C69.5625 384.625 69.5625 384.625 67 387 C55.03753397 387.81446577 41.70030394 384.0650547 32 377 C27.75964716 373.0899645 24.97080388 369.44092745 23 364 C22.67128906 365.2684375 22.67128906 365.2684375 22.3359375 366.5625 C17.82737618 382.69068682 7.70798622 390.8810088 -5.984375 399.62890625 C-9.40524455 401.18424979 -10.52622326 401.27539629 -14 400 C-24.39840051 394.92400354 -36.34649295 385.35323157 -40.3984375 374.1796875 C-41.42000242 370.47817306 -42.32082548 366.7801424 -43 363 C-43.3403125 363.58007812 -43.680625 364.16015625 -44.03125 364.7578125 C-50.72818638 375.5512791 -58.86945195 379.5673421 -71 383 C-73.32716707 383.37396387 -75.66089055 383.70996117 -78 384 C-79.37285156 384.29197266 -79.37285156 384.29197266 -80.7734375 384.58984375 C-83.93947245 385.0129325 -85.94766326 385.01172959 -89 384 C-92.88386405 379.80446785 -95.45526822 375.09078757 -98 370 C-98.53882813 368.93136719 -99.07765625 367.86273437 -99.6328125 366.76171875 C-102.60585832 360.48434486 -104.14681942 355.60578818 -104.1875 348.625 C-104.20167969 347.52414062 -104.21585938 346.42328125 -104.23046875 345.2890625 C-103.99195913 341.88524724 -103.21372666 339.17583814 -102 336 C-102.46148438 336.39832031 -102.92296875 336.79664063 -103.3984375 337.20703125 C-112.33853484 344.46865181 -121.62887718 346.15072298 -133 345 C-148.78800311 342.16149885 -148.78800311 342.16149885 -153 339 C-157.23356873 328.66882855 -158.75833781 311.76296695 -154.7578125 301.16015625 C-152.66726571 296.869855 -150.53539202 293.23812182 -147 290 C-147.51046875 290.15339844 -148.0209375 290.30679687 -148.546875 290.46484375 C-160.97998862 293.17716312 -170.61822763 290.64313046 -181.21826172 284.15966797 C-185.79016587 281.18398357 -190.13769932 277.86230068 -194 274 C-194.55548664 261.89832685 -191.19250581 248.85274768 -184 239 C-180.40880603 235.17309059 -176.76720852 232.21410351 -172 230 C-172.6290625 229.84144531 -173.258125 229.68289063 -173.90625 229.51953125 C-182.55389293 227.16226714 -188.94069007 223.69713202 -195 217 C-195.68835938 216.28263672 -195.68835938 216.28263672 -196.390625 215.55078125 C-201.0561277 210.48011647 -208.11709665 202.64727339 -207.9375 195.51953125 C-203.72538091 184.19946119 -193.08287061 172.10904594 -182.3125 166.9375 C-178.18865156 165.27390205 -174.43035609 164.29535707 -170 164 C-170.87011719 163.50693359 -170.87011719 163.50693359 -171.7578125 163.00390625 C-177.94970557 159.23359512 -181.54269462 155.34367959 -185 149 C-185.39058594 148.2884375 -185.78117188 147.576875 -186.18359375 146.84375 C-189.18531967 140.77432616 -190.17812937 134.67114143 -191 128 C-191.22429688 127.12988281 -191.44859375 126.25976562 -191.6796875 125.36328125 C-192.22847251 122.29682466 -192.27739152 120.87069706 -191 118 C-186.9473189 114.17882001 -181.93145131 111.61101328 -177.02539062 109.05712891 C-175.33011167 108.17229792 -173.66805781 107.22419598 -172.015625 106.26171875 C-163.91241953 101.90317641 -154.34791986 101.40713146 -145.55078125 104.02734375 C-144.70902344 104.34832031 -143.86726562 104.66929687 -143 105 C-143.763125 104.13375 -144.52625 103.2675 -145.3125 102.375 C-152.49769767 93.72426626 -153.00211766 83.87906892 -152 73 C-150.9316665 66.52564159 -149.66039116 59.49058675 -146 54 C-133.38422182 50.01607005 -117.25795881 48.45005073 -105 54 C-101.65533205 55.98064136 -98.75550313 58.24449687 -96 61 C-96.32226562 60.33355469 -96.64453125 59.66710937 -96.9765625 58.98046875 C-99.73244729 50.9547432 -99.09179454 40.16118738 -95.47265625 32.5078125 C-91.22117457 25.26788879 -86.29445344 18.50977117 -81 12 C-66.38431154 13.85464229 -50.00738478 17.00197867 -40.5 29.1875 C-38.82898154 31.540851 -37.92505305 33.22484085 -37 36 C-36.773125 34.700625 -36.54625 33.40125 -36.3125 32.0625 C-33.13218517 17.818273 -23.12176542 9.95019775 -11.4609375 2.34375 C-4.88887567 -1.61267518 -4.88887567 -1.61267518 0 0 Z " fill="#9B1259" transform="translate(1113,577)"/>
<path d="M0 0 C2.4138176 0.22117559 4.83114597 0.40572242 7.25 0.5625 C8.51328125 0.64628906 9.7765625 0.73007812 11.078125 0.81640625 C12.04234375 0.87699219 13.0065625 0.93757812 14 1 C14 1.33 14 1.66 14 2 C12.06060547 2.07347656 12.06060547 2.07347656 10.08203125 2.1484375 C1.15521371 2.52071064 -7.56955126 2.99204863 -16.37109375 4.59765625 C-18.9592796 4.9937679 -21.38642024 5.07115008 -24 5 C-24 4.34 -24 3.68 -24 3 C-20.75290806 2.29825244 -17.50199748 1.61611931 -14.25 0.9375 C-13.32960938 0.73833984 -12.40921875 0.53917969 -11.4609375 0.33398438 C-10.57148437 0.15029297 -9.68203125 -0.03339844 -8.765625 -0.22265625 C-7.94868164 -0.39547119 -7.13173828 -0.56828613 -6.29003906 -0.74633789 C-3.86135376 -1.01535751 -2.32220008 -0.68814687 0 0 Z " fill="#CAE1E5" transform="translate(1644,681)"/>
<path d="M0 0 C2.24707241 0.2198223 4.49771238 0.40483987 6.75 0.5625 C7.92046875 0.64628906 9.0909375 0.73007812 10.296875 0.81640625 C11.18890625 0.87699219 12.0809375 0.93757812 13 1 C13 1.33 13 1.66 13 2 C12.44763672 2.01981934 11.89527344 2.03963867 11.32617188 2.06005859 C-0.55147542 2.50534736 -12.23320944 3.28574338 -24 5 C-24 4.34 -24 3.68 -24 3 C-20.75290806 2.29825244 -17.50199748 1.61611931 -14.25 0.9375 C-13.32960938 0.73833984 -12.40921875 0.53917969 -11.4609375 0.33398438 C-10.57148437 0.15029297 -9.68203125 -0.03339844 -8.765625 -0.22265625 C-7.94868164 -0.39547119 -7.13173828 -0.56828613 -6.29003906 -0.74633789 C-3.86350856 -1.01511883 -2.31892692 -0.6921105 0 0 Z " fill="#498463" transform="translate(1590,689)"/>
<path d="M0 0 C0.99 0 1.98 0 3 0 C3.13277344 1.09699219 3.26554687 2.19398437 3.40234375 3.32421875 C3.58062985 4.77865801 3.7590208 6.23308442 3.9375 7.6875 C4.02451172 8.40873047 4.11152344 9.12996094 4.20117188 9.87304688 C4.66313805 13.62010584 5.19167679 17.30792911 6 21 C5.67 21 5.34 21 5 21 C4.67 27.27 4.34 33.54 4 40 C3.67 40 3.34 40 3 40 C2.98018066 39.22922119 2.96036133 38.45844238 2.93994141 37.66430664 C2.84395546 34.13006151 2.73457671 30.59634883 2.625 27.0625 C2.5940625 25.85013672 2.563125 24.63777344 2.53125 23.38867188 C2.31167925 16.63687134 1.62573459 10.54919909 0 4 C0 2.68 0 1.36 0 0 Z " fill="#B7D7DC" transform="translate(1200,1291)"/>
<path d="M0 0 C0.99 0 1.98 0 3 0 C2.1335913 5.49029511 1.03702879 10.92786444 -0.0625 16.375 C-0.24876953 17.30183594 -0.43503906 18.22867187 -0.62695312 19.18359375 C-1.0837584 21.45590718 -1.5414646 23.72803518 -2 26 C-2.99 25.67 -3.98 25.34 -5 25 C-3.33333333 16.66666667 -1.66666667 8.33333333 0 0 Z " fill="#C5DFE3" transform="translate(996,1287)"/>
<path d="M0 0 C0.66 0.33 1.32 0.66 2 1 C0.53185043 5.49495108 -2.93952155 6.98254754 -6.875 9.0625 C-11.74275734 11.66936216 -11.74275734 11.66936216 -16.3203125 14.74609375 C-18 16 -18 16 -20 16 C-18.54725783 12.28034149 -16.83612362 11.02165288 -13.375 9.125 C-8.61766357 6.41442459 -4.29717268 3.38492373 0 0 Z " fill="#E5F0F2" transform="translate(1565,481)"/>
<path d="M0 0 C0.66 0 1.32 0 2 0 C0.499902 4.19659318 -1.99043855 5.4263785 -5.8125 7.5 C-9.04654014 9.26767411 -11.87961053 10.89825261 -14.69921875 13.28125 C-15.45847656 13.8484375 -16.21773437 14.415625 -17 15 C-17.99 14.67 -18.98 14.34 -20 14 C-16.58850739 10.16755201 -12.70230796 7.8478125 -8.3125 5.3125 C-3.90415622 2.98249481 -3.90415622 2.98249481 0 0 Z " fill="#DEEDEF" transform="translate(668,1060)"/>
<path d="M0 0 C0.66 0.33 1.32 0.66 2 1 C0.52077069 4.99047907 -1.51792286 6.1237645 -5.25 8 C-8.47267754 9.66413493 -11.58951804 11.29465034 -14.5625 13.375 C-17 15 -17 15 -19 15 C-17.57191931 10.71575794 -14.36851526 9.60833666 -10.625 7.5 C-9.26063356 6.72292663 -7.8985662 5.9417998 -6.5390625 5.15625 C-5.93271973 4.81400391 -5.32637695 4.47175781 -4.70166016 4.11914062 C-2.88511021 2.92443977 -1.48303868 1.58326696 0 0 Z " fill="#267C76" transform="translate(1518,509)"/>
<path d="M0 0 C0.66 0 1.32 0 2 0 C0.86364454 7.71271047 -0.38159365 15.37282967 -2 23 C-2.99 22.34 -3.98 21.68 -5 21 C-4.35610937 18.0620618 -3.70997221 15.124649 -3.0625 12.1875 C-2.78889648 10.93743164 -2.78889648 10.93743164 -2.50976562 9.66210938 C-2.33251953 8.85966797 -2.15527344 8.05722656 -1.97265625 7.23046875 C-1.81031494 6.49207764 -1.64797363 5.75368652 -1.48071289 4.99291992 C-1 3 -1 3 0 0 Z " fill="#3C816A" transform="translate(1006,1235)"/>
<path d="M0 0 C7.68081691 1.2600293 15.34640892 2.58378433 23 4 C23 4.33 23 4.66 23 5 C14.89563895 6.98474148 7.74839684 4.3507506 0 2 C0 1.34 0 0.68 0 0 Z " fill="#B9D8DD" transform="translate(1617,887)"/>
<path d="M0 0 C5.95854073 0.73417734 11.49315325 2.19184099 17.1875 4.08203125 C17.1875 4.74203125 17.1875 5.40203125 17.1875 6.08203125 C10.17055518 4.82805252 3.17193993 3.50619037 -3.8125 2.08203125 C-1.8125 0.08203125 -1.8125 0.08203125 0 0 Z " fill="#CCE2E6" transform="translate(580.8125,663.91796875)"/>
<path d="M0 0 C-1.5018165 4.19218717 -4.00513219 5.46398778 -7.8125 7.5625 C-8.85019531 8.14128906 -9.88789062 8.72007813 -10.95703125 9.31640625 C-11.96121094 9.87199219 -12.96539063 10.42757813 -14 11 C-15.67104003 11.99267466 -17.33932165 12.99008655 -19 14 C-18.86328125 12.22265625 -18.86328125 12.22265625 -18 10 C-15.41796875 8.18359375 -15.41796875 8.18359375 -12.1875 6.4375 C-7.82816791 4.07050191 -7.82816791 4.07050191 -3.73828125 1.28515625 C-2 0 -2 0 0 0 Z " fill="#267C76" transform="translate(713,1030)"/>
<path d="M0 0 C0.99 0.33 1.98 0.66 3 1 C1.39933082 3.27337067 -0.20535193 5.54371657 -1.8125 7.8125 C-2.26431641 8.45509766 -2.71613281 9.09769531 -3.18164062 9.75976562 C-3.62314453 10.38173828 -4.06464844 11.00371094 -4.51953125 11.64453125 C-4.92276611 12.21534424 -5.32600098 12.78615723 -5.74145508 13.37426758 C-7.0471462 15.06090136 -8.46216228 16.52469189 -10 18 C-10 13.99653659 -9.99477646 13.49294823 -7.8125 10.546875 C-7.36132812 9.928125 -6.91015625 9.309375 -6.4453125 8.671875 C-5.96835938 8.03765625 -5.49140625 7.4034375 -5 6.75 C-4.52304688 6.1003125 -4.04609375 5.450625 -3.5546875 4.78125 C-2.37822673 3.18126336 -1.19021231 1.58978359 0 0 Z " fill="#DCEBEE" transform="translate(1414,333)"/>
<path d="M0 0 C0.13277344 1.01320313 0.26554688 2.02640625 0.40234375 3.0703125 C0.58067584 4.42188204 0.75906425 5.77344414 0.9375 7.125 C1.02451172 7.79015625 1.11152344 8.4553125 1.20117188 9.140625 C1.72630558 13.10830188 2.31814014 17.05626998 3 21 C2.01 21 1.02 21 0 21 C-0.99 14.4 -1.98 7.8 -3 1 C-1 0 -1 0 0 0 Z " fill="#4A8462" transform="translate(1020,296)"/>
<path d="M0 0 C0.66 0.33 1.32 0.66 2 1 C0.18633597 5.12764916 -2.49146618 8.62059205 -5.125 12.25 C-5.59292969 12.8996875 -6.06085937 13.549375 -6.54296875 14.21875 C-7.69274282 15.81435483 -8.84602566 17.40743025 -10 19 C-11 16 -11 16 -10.10375977 14.19067383 C-9.63768311 13.53607178 -9.17160645 12.88146973 -8.69140625 12.20703125 C-8.19189453 11.49482422 -7.69238281 10.78261719 -7.17773438 10.04882812 C-6.64470703 9.31083984 -6.11167969 8.57285156 -5.5625 7.8125 C-5.03333984 7.06291016 -4.50417969 6.31332031 -3.95898438 5.54101562 C-2.64838215 3.68728094 -1.32856151 1.84088468 0 0 Z " fill="#DCEBEE" transform="translate(810,1206)"/>
<path d="M0 0 C2.49701617 3.17663219 4.53954429 6.50461216 6.5625 10 C7.16191406 11.03125 7.76132812 12.0625 8.37890625 13.125 C9.65717535 15.39200255 10.86829014 17.65775472 12 20 C7.67382312 18.51257289 6.00329123 15.32342677 3.8125 11.5625 C3.45736328 10.97662109 3.10222656 10.39074219 2.73632812 9.78710938 C1.19806803 7.21555883 -0.04949519 4.85151442 -1 2 C-0.67 1.34 -0.34 0.68 0 0 Z " fill="#337F6F" transform="translate(841,364)"/>
<path d="M0 0 C0.33 0 0.66 0 1 0 C2.19639466 5.72614049 1.64244939 9.84887644 0.0625 15.4375 C-0.13279297 16.16904297 -0.32808594 16.90058594 -0.52929688 17.65429688 C-1.00766335 19.43942056 -1.50217046 21.22020596 -2 23 C-2.66 23 -3.32 23 -4 23 C-2.86364454 15.28728953 -1.61840635 7.62717033 0 0 Z " fill="#CAE1E5" transform="translate(1220,247)"/>
<path d="M0 0 C5.40931904 3.55876253 10.70460564 7.27438657 16 11 C14.24609375 11.671875 14.24609375 11.671875 12 12 C10.03515625 10.890625 10.03515625 10.890625 8.0625 9.25 C5.14550287 6.90549763 2.27155504 4.84024971 -1 3 C-0.67 2.01 -0.34 1.02 0 0 Z " fill="#E3EFF1" transform="translate(1536,1073)"/>
<path d="M0 0 C10.395 1.98 10.395 1.98 21 4 C21 4.99 21 5.98 21 7 C19.85724609 6.70996094 19.85724609 6.70996094 18.69140625 6.4140625 C12.47874359 4.8473236 6.26186932 3.35673835 0 2 C0 1.34 0 0.68 0 0 Z " fill="#357F6E" transform="translate(1564,875)"/>
<path d="M0 0 C0.99 0.33 1.98 0.66 3 1 C1.68 7.27 0.36 13.54 -1 20 C-1.66 20 -2.32 20 -3 20 C-2.45136137 13.2142064 -1.45732062 6.64990964 0 0 Z " fill="#337F6F" transform="translate(1207,300)"/>
<path d="M0 0 C3.12557301 2.73117894 5.07807514 6.16670588 7.1875 9.6875 C7.55552734 10.29400391 7.92355469 10.90050781 8.30273438 11.52539062 C9.20564926 13.01461388 10.10334696 14.50699815 11 16 C10.01 16.33 9.02 16.66 8 17 C6.65546882 14.92317952 5.32444163 12.83957514 4 10.75 C3.6184375 10.16347656 3.236875 9.57695313 2.84375 8.97265625 C0.72252389 5.6014219 0 4.09419282 0 0 Z " fill="#E0EDF0" transform="translate(1390,1215)"/>
<path d="M0 0 C0.33 0 0.66 0 1 0 C1.13277344 1.15757812 1.26554688 2.31515625 1.40234375 3.5078125 C1.58065082 5.04688408 1.75904062 6.58594607 1.9375 8.125 C2.02451172 8.88554687 2.11152344 9.64609375 2.20117188 10.4296875 C2.6915487 14.64329577 3.25902978 18.821195 4 23 C3.01 23 2.02 23 1 23 C0.63400603 20.4803886 0.28199149 17.96006672 -0.0625 15.4375 C-0.16626953 14.73302734 -0.27003906 14.02855469 -0.37695312 13.30273438 C-1.0046656 8.60571341 -0.87579081 4.66067698 0 0 Z " fill="#C5DFE3" transform="translate(1011,243)"/>
<path d="M0 0 C3.12557301 2.73117894 5.07807514 6.16670588 7.1875 9.6875 C7.55552734 10.29400391 7.92355469 10.90050781 8.30273438 11.52539062 C9.20564926 13.01461388 10.10334696 14.50699815 11 16 C10.34 16.99 9.68 17.98 9 19 C7.7069894 16.75076296 6.41555023 14.50064815 5.125 12.25 C4.76019531 11.61578125 4.39539062 10.9815625 4.01953125 10.328125 C2.2603169 7.25749632 0.53126626 4.19148125 -1 1 C-0.67 0.67 -0.34 0.34 0 0 Z " fill="#2E7E71" transform="translate(1360,1170)"/>
<path d="M0 0 C0 0.99 0 1.98 0 3 C-2.74862047 3.39008806 -5.4977234 3.76250503 -8.25 4.125 C-9.02730469 4.23714844 -9.80460938 4.34929688 -10.60546875 4.46484375 C-17.72431144 5.37751589 -17.72431144 5.37751589 -21 3 C-19.95199219 2.86722656 -18.90398438 2.73445312 -17.82421875 2.59765625 C-16.44529222 2.41942765 -15.06638707 2.24103359 -13.6875 2.0625 C-12.65206055 1.93198242 -12.65206055 1.93198242 -11.59570312 1.79882812 C-7.6528136 1.28453819 -3.93716926 0 0 0 Z " fill="#3C816A" transform="translate(646,860)"/>
<path d="M0 0 C0.66 0 1.32 0 2 0 C0.63410386 3.79189077 -1.10454649 6.84381378 -3.4375 10.125 C-4.03433594 10.97320313 -4.63117187 11.82140625 -5.24609375 12.6953125 C-6.72838784 14.64309316 -8.21712802 16.33162439 -10 18 C-10.33 17.34 -10.66 16.68 -11 16 C-10.45730469 15.26394531 -9.91460938 14.52789063 -9.35546875 13.76953125 C-8.64003906 12.79371094 -7.92460938 11.81789063 -7.1875 10.8125 C-6.47980469 9.84957031 -5.77210938 8.88664062 -5.04296875 7.89453125 C-2.97606992 5.06355231 -2.97606992 5.06355231 -1.36328125 2.13671875 C-0.68845703 1.07904297 -0.68845703 1.07904297 0 0 Z " fill="#297D74" transform="translate(838,1162)"/>
<path d="M0 0 C0.99 0.33 1.98 0.66 3 1 C1.75457942 2.75326198 0.50345947 4.50247622 -0.75 6.25 C-1.44609375 7.22453125 -2.1421875 8.1990625 -2.859375 9.203125 C-4.76452299 11.69233296 -6.72684621 13.84971939 -9 16 C-9 11.86002304 -6.83167083 9.54392969 -4.5 6.3125 C-4.07074219 5.70599609 -3.64148437 5.09949219 -3.19921875 4.47460938 C-2.13906862 2.97861974 -1.07034429 1.488713 0 0 Z " fill="#287C75" transform="translate(1381,377)"/>
<path d="M0 0 C3.88701415 1.29567138 4.44755274 2.8637199 6.5625 6.3125 C7.16191406 7.27800781 7.76132812 8.24351562 8.37890625 9.23828125 C9.6840822 11.46179787 10.88998636 13.67504606 12 16 C11.01 16 10.02 16 9 16 C7.28918759 13.5445853 5.78572539 11.15415488 4.3125 8.5625 C3.89677734 7.85544922 3.48105469 7.14839844 3.05273438 6.41992188 C0 1.18165025 0 1.18165025 0 0 Z " fill="#DFEDEF" transform="translate(814,325)"/>
<path d="M0 0 C3.7412054 2.18179986 7.29164732 4.54087191 10.8125 7.0625 C12.27623047 8.10083984 12.27623047 8.10083984 13.76953125 9.16015625 C14.50558594 9.76730469 15.24164062 10.37445313 16 11 C16 11.66 16 12.32 16 13 C12.23617723 11.31906944 9.03234344 8.95783133 5.75 6.5 C5.19570313 6.09652344 4.64140625 5.69304687 4.0703125 5.27734375 C2.67430835 4.23549829 1.33197608 3.12254588 0 2 C0 1.34 0 0.68 0 0 Z " fill="#287C75" transform="translate(705,499)"/>
<path d="M0 0 C3.9644789 0.61355031 6.5524654 2.59856266 9.75 4.9375 C10.73484375 5.64777344 11.7196875 6.35804688 12.734375 7.08984375 C13.48203125 7.72019531 14.2296875 8.35054688 15 9 C15 9.66 15 10.32 15 11 C10.92584833 9.59790456 8.01720177 7.65552322 4.6875 4.9375 C3.80449219 4.22464844 2.92148437 3.51179688 2.01171875 2.77734375 C1.34785156 2.19082031 0.68398438 1.60429687 0 1 C0 0.67 0 0.34 0 0 Z " fill="#DCEBEE" transform="translate(664,472)"/>
<path d="M0 0 C3.83663072 1.34929464 6.65172569 3.07751025 9.8125 5.625 C10.99779297 6.57246094 10.99779297 6.57246094 12.20703125 7.5390625 C12.79871094 8.02117187 13.39039063 8.50328125 14 9 C13.34 9.66 12.68 10.32 12 11 C11.38511719 10.51789063 10.77023437 10.03578125 10.13671875 9.5390625 C9.32847656 8.90742187 8.52023437 8.27578125 7.6875 7.625 C6.88699219 6.99851562 6.08648438 6.37203125 5.26171875 5.7265625 C3.55336788 4.42243282 1.78827274 3.19218183 0 2 C0 1.34 0 0.68 0 0 Z " fill="#247B77" transform="translate(1491,1043)"/>
<path d="M0 0 C1.2375 -0.04125 2.475 -0.0825 3.75 -0.125 C4.79414062 -0.15980469 4.79414062 -0.15980469 5.859375 -0.1953125 C8.30155975 0.02751458 9.88636771 0.79085 12 2 C5.62694402 2.74507544 -0.58311325 3.10349817 -7 3 C-7 2.67 -7 2.34 -7 2 C-4.69 2 -2.38 2 0 2 C0 1.34 0 0.68 0 0 Z " fill="#FC9200" transform="translate(808,777)"/>
<path d="M0 0 C0.33 0 0.66 0 1 0 C0.67 3.96 0.34 7.92 0 12 C-0.99 11.67 -1.98 11.34 -3 11 C-2.69217504 9.35328588 -2.37860766 7.70764424 -2.0625 6.0625 C-1.88847656 5.14597656 -1.71445312 4.22945312 -1.53515625 3.28515625 C-1 1 -1 1 0 0 Z " fill="#DEECEF" transform="translate(994,1301)"/>
<path d="M0 0 C0.99 0 1.98 0 3 0 C3.22142255 1.95689659 3.4267568 3.91561952 3.625 5.875 C3.74101563 6.96554687 3.85703125 8.05609375 3.9765625 9.1796875 C3.98429687 10.11039063 3.99203125 11.04109375 4 12 C3.34 12.66 2.68 13.32 2 14 C1.34 9.38 0.68 4.76 0 0 Z " fill="#498463" transform="translate(1189,1238)"/>
<path d="M0 0 C0.66 0.33 1.32 0.66 2 1 C1.39301257 5.12751449 -0.03810791 8.3321148 -2 12 C-3.15957207 8.52128379 -2.77456651 7.65780355 -1.5625 4.3125 C-1.13130859 3.10013672 -1.13130859 3.10013672 -0.69140625 1.86328125 C-0.46324219 1.24839844 -0.23507812 0.63351562 0 0 Z " fill="#FC9900" transform="translate(1217,501)"/>
<path d="M0 0 C0.99 0 1.98 0 3 0 C3.125 3.375 3.125 3.375 3 7 C2.34 7.66 1.68 8.32 1 9 C0.67 6.03 0.34 3.06 0 0 Z " fill="#C1DCE1" transform="translate(1200,1291)"/>
<path d="M0 0 C2.97 1.98 2.97 1.98 6 4 C5.34 4.66 4.68 5.32 4 6 C2.35 5.01 0.7 4.02 -1 3 C-0.67 2.01 -0.34 1.02 0 0 Z " fill="#D7E9EB" transform="translate(1536,1073)"/>
<path d="M0 0 C-1.0975223 2.99324263 -1.67682892 3.84610901 -4.625 5.25 C-5.40875 5.4975 -6.1925 5.745 -7 6 C-7.33 5.34 -7.66 4.68 -8 4 C-2.25 0 -2.25 0 0 0 Z " fill="#357F6E" transform="translate(713,1030)"/>
<path d="M0 0 C6.15234375 0.5859375 6.15234375 0.5859375 8 1 C8.33 1.66 8.66 2.32 9 3 C2.25 3.125 2.25 3.125 0 2 C0 1.34 0 0.68 0 0 Z " fill="#E1EEF0" transform="translate(1617,887)"/>
<path d="M0 0 C2.12508244 3.18762365 2.5020163 5.26512223 3 9 C2.01 9 1.02 9 0 9 C0 6.03 0 3.06 0 0 Z " fill="#3C816A" transform="translate(1020,308)"/>
<path d="M0 0 C0.99 0.33 1.98 0.66 3 1 C2.34 3.64 1.68 6.28 1 9 C0.34 8.67 -0.32 8.34 -1 8 C-0.67 5.36 -0.34 2.72 0 0 Z " fill="#428267" transform="translate(1207,300)"/>
<path d="M0 0 C3.10551666 3.10551666 3.81323934 4.89198233 5 9 C4.01 9.495 4.01 9.495 3 10 C2.01 6.7 1.02 3.4 0 0 Z " fill="#FC9800" transform="translate(1216,1041)"/>
</svg>
